<svg version="1.2" xmlns="http://www.w3.org/2000/svg" viewBox="0 0 288 275" width="288" height="275">
	<title>4074772-ai</title>
	<defs>
		<linearGradient id="g1" x2="1" gradientUnits="userSpaceOnUse" gradientTransform="matrix(1,0,0,1.735,406.503,687.15)">
			<stop offset="0" stop-color="#ffffff"/>
			<stop offset="1" stop-color="#ffffff"/>
		</linearGradient>
		<linearGradient id="g2" x2="1" gradientUnits="userSpaceOnUse" gradientTransform="matrix(1,0,0,1.736,645.527,234.918)">
			<stop offset="0" stop-color="#ffffff"/>
			<stop offset="1" stop-color="#ffffff"/>
		</linearGradient>
		<linearGradient id="g3" x2="1" gradientUnits="userSpaceOnUse" gradientTransform="matrix(1,0,0,1.57,910.047,252.129)">
			<stop offset="0" stop-color="#ffffff"/>
			<stop offset="1" stop-color="#ffffff"/>
		</linearGradient>
		<linearGradient id="g4" x2="1" gradientUnits="userSpaceOnUse" gradientTransform="matrix(1,0,0,1.736,1165.879,251.821)">
			<stop offset="0" stop-color="#ffffff"/>
			<stop offset="1" stop-color="#ffffff"/>
		</linearGradient>
		<linearGradient id="g5" x2="1" gradientUnits="userSpaceOnUse" gradientTransform="matrix(1,0,0,1.666,636.104,656.316)">
			<stop offset="0" stop-color="#ffffff"/>
			<stop offset="1" stop-color="#ffffff"/>
		</linearGradient>
		<linearGradient id="g6" x2="1" gradientUnits="userSpaceOnUse" gradientTransform="matrix(1,0,0,1.666,898.089,659.446)">
			<stop offset="0" stop-color="#ffffff"/>
			<stop offset="1" stop-color="#ffffff"/>
		</linearGradient>
		<linearGradient id="g7" x2="1" gradientUnits="userSpaceOnUse" gradientTransform="matrix(1,0,0,1.666,1163.487,654.316)">
			<stop offset="0" stop-color="#ffffff"/>
			<stop offset="1" stop-color="#ffffff"/>
		</linearGradient>
	</defs>
	<style>
		.s0 { opacity: .0;fill: url(#g1) } 
		.s1 { opacity: .8;fill: url(#g2) } 
		.s2 { fill: url(#g3) } 
		.s3 { opacity: .8;fill: url(#g4) } 
		.s4 { opacity: .6;fill: url(#g5) } 
		.s5 { opacity: .6;fill: url(#g6) } 
		.s6 { opacity: .8;fill: url(#g7) } 
		.s7 { fill: #ffffff } 
		.s8 { fill: #c0c1c3 } 
	</style>
	<g id="OBJECTS">
		<path id="&lt;Mesh&gt;" class="s0" d="m406.5 687.1c-0.1-55.9-0.2-28.1-0.3-84.1q-27.5 0.1-55 0.1c0.1 56 0.2 28.2 0.3 84.1q27.5 0 55-0.1zm-55 0.1c-0.1-55.9-0.2-28.1-0.3-84.1-34.8 0.1-69.6-7.3-104.4-7.3 0.1 56 0.2 35.6 0.2 91.6q52.3-0.1 104.5-0.2zm-104.5 0.2c0-56-0.1-35.6-0.2-91.6-34.9 0.1-69.7 7.6-104.5 7.7 0.1 55.9 0.2 28.1 0.3 84.1q52.2-0.1 104.4-0.2zm-104.4 0.2c-0.1-56-0.2-28.2-0.3-84.1q-51.4 0.1-102.9 0.1c0.1 56 0.2 28.2 0.3 84.2q51.4-0.1 102.9-0.2zm-102.9 0.2c-0.1-56-0.2-28.2-0.3-84.2q-44 0.1-88 0.2c0.1 56 0.2 28.2 0.3 84.1q44 0 88-0.1zm-88 0.1c-0.1-55.9-0.2-28.1-0.3-84.1-15.3 0-63.7 0.1-79 0.1 0.1 56 0.1 28.2 0.2 84.2 15.3-0.1 63.8-0.1 79.1-0.2zm454.5-84.9q-0.1-87.9-0.3-175.8-27.5 0.1-55 0.1 0.2 87.9 0.3 175.8 27.5 0 55-0.1zm-55 0.1q-0.1-87.9-0.3-175.8-52.2 0.1-104.4 0.2c0.1 58.6 0.2 109.7 0.3 168.3 34.8 0 69.6 7.4 104.4 7.3zm-104.4-7.3c-0.1-58.6-0.2-109.7-0.3-168.3q-52.3 0.1-104.5 0.2 0.2 87.9 0.3 175.8c34.8-0.1 69.6-7.6 104.5-7.7zm-104.5 7.7q-0.1-87.9-0.3-175.8-51.5 0.1-102.9 0.2 0.2 87.9 0.3 175.7 51.5 0 102.9-0.1zm-102.9 0.1q-0.1-87.8-0.3-175.7-44 0-88 0.1 0.2 87.9 0.3 175.8 44-0.1 88-0.2zm-88 0.2q-0.1-87.9-0.3-175.8c-15.3 0-63.7 0.1-79 0.1q0.1 87.9 0.3 175.8c15.3 0 63.7-0.1 79-0.1zm454.5-176.6q-0.1-85.6-0.3-171.1-27.5 0-55 0.1 0.2 85.5 0.3 171.1 27.5 0 55-0.1zm-55 0.1q-0.1-85.6-0.3-171.1-52.2 0.1-104.4 0.1 0.1 85.6 0.3 171.2 52.2-0.1 104.4-0.2zm-104.4 0.2q-0.2-85.6-0.3-171.2-52.3 0.1-104.5 0.2 0.2 85.6 0.3 171.2 52.2-0.1 104.5-0.2zm-104.5 0.2q-0.1-85.6-0.3-171.2-51.4 0.1-102.9 0.2 0.2 85.6 0.3 171.2 51.4-0.1 102.9-0.2zm-102.9 0.2q-0.1-85.6-0.3-171.2-44 0.1-88 0.2 0.2 85.5 0.3 171.1 44-0.1 88-0.1zm-88 0.1q-0.1-85.6-0.3-171.1c-15.3 0-63.7 0.1-79 0.1q0.1 85.6 0.3 171.1c15.3 0 63.7-0.1 79-0.1zm454.5-171.9q-0.1-101.8-0.3-203.6-27.5 0.1-55 0.1 0.2 101.8 0.3 203.6 27.5-0.1 55-0.1zm-55 0.1q-0.1-101.8-0.3-203.6-52.2 0.1-104.5 0.2 0.2 101.8 0.4 203.5 52.2 0 104.4-0.1zm-104.4 0.1q-0.2-101.7-0.4-203.5-52.2 0.1-104.4 0.2 0.1 101.8 0.3 203.5 52.2-0.1 104.5-0.2zm-104.5 0.2q-0.2-101.7-0.3-203.5-51.5 0.1-102.9 0.2 0.1 101.7 0.3 203.5 51.5-0.1 102.9-0.2zm-102.9 0.2q-0.2-101.8-0.3-203.5-44 0-88 0.1 0.2 101.8 0.3 203.6 44-0.1 88-0.2zm-88 0.2q-0.1-101.8-0.3-203.6c-15.3 0-63.8 0.1-79.1 0.2q0.2 101.7 0.4 203.5c15.3 0 63.7-0.1 79-0.1zm454.5-204.4q-0.2-90.2-0.3-180.4-27.5 0.1-55 0.1 0.1 90.2 0.3 180.4 27.5 0 55-0.1zm-55 0.1q-0.2-90.2-0.3-180.4-52.3 0.1-104.5 0.2 0.2 90.2 0.3 180.4 52.3-0.1 104.5-0.2zm-104.5 0.2q-0.1-90.2-0.3-180.4-52.2 0.1-104.5 0.2 0.2 90.2 0.4 180.4 52.2-0.1 104.4-0.2zm-104.4 0.2q-0.2-90.2-0.4-180.4-51.4 0.1-102.9 0.2 0.2 90.2 0.4 180.4 51.4-0.1 102.9-0.2zm-102.9 0.2q-0.2-90.2-0.4-180.4-43.9 0-87.9 0.1 0.1 90.2 0.3 180.4 44-0.1 88-0.1zm-88 0.1q-0.2-90.2-0.3-180.4c-15.3 0-63.8 0.1-79.1 0.1q0.1 90.2 0.3 180.5c15.3-0.1 63.8-0.2 79.1-0.2zm454.5-181.2q-0.1-56.8-0.2-113.6-27.5 0.1-55 0.1 0.1 56.8 0.2 113.6 27.5 0 55-0.1zm-55 0.1q-0.1-56.8-0.2-113.6-52.2 0.1-104.5 0.2 0.1 56.8 0.2 113.6 52.2-0.1 104.5-0.2zm-104.5 0.2q-0.1-56.8-0.2-113.6-52.2 0.1-104.5 0.2 0.1 56.8 0.2 113.6 52.3-0.1 104.5-0.2zm-104.5 0.2q-0.1-56.8-0.2-113.6-51.4 0.1-102.9 0.2 0.1 56.8 0.2 113.6 51.5-0.1 102.9-0.2zm-102.9 0.2q-0.1-56.8-0.2-113.6-43.9 0-87.9 0.1 0.1 56.8 0.2 113.6 44-0.1 87.9-0.1zm-87.9 0.1q-0.1-56.8-0.2-113.6c-15.3 0.1-63.8 0.1-79.1 0.2q0.1 56.8 0.2 113.5c15.3 0 63.8-0.1 79.1-0.1z"/>
		<path id="&lt;Mesh&gt;" class="s1" d="m645.5 234.9c0-26.5-0.1-13.3-0.1-39.9q-13 0.1-26.1 0.1c0.1 26.5 0.1 13.3 0.2 39.9q13-0.1 26-0.1zm-26 0.1c-0.1-26.6-0.1-13.4-0.2-39.9-16.5 0-33-3.5-49.5-3.5 0.1 26.6 0.1 16.9 0.2 43.4q24.7 0 49.5 0zm-49.5 0c-0.1-26.5-0.1-16.8-0.2-43.4-16.5 0.1-33 3.6-49.5 3.7 0.1 26.5 0.1 13.3 0.2 39.8q24.7 0 49.5-0.1zm-49.5 0.1c-0.1-26.5-0.1-13.3-0.2-39.8q-24.4 0-48.7 0c0 26.6 0 13.4 0.1 39.9q24.4 0 48.8-0.1zm-48.8 0.1c-0.1-26.5-0.1-13.3-0.1-39.9q-20.9 0.1-41.7 0.1c0 26.5 0.1 13.4 0.1 39.9q20.8 0 41.7-0.1zm-41.7 0.1c0-26.5-0.1-13.4-0.1-39.9-7.3 0-30.2 0.1-37.5 0.1 0 26.5 0.1 13.3 0.1 39.9 7.3-0.1 30.2-0.1 37.5-0.1zm215.4-40.3q-0.1-41.6-0.1-83.3-13.1 0-26.1 0.1 0.1 41.6 0.1 83.3 13.1 0 26.1-0.1zm-26.1 0.1q0-41.7-0.1-83.3-24.8 0-49.5 0c0 27.8 0.1 52.1 0.1 79.8 16.5 0 33 3.5 49.5 3.5zm-49.5-3.5c0-27.7-0.1-52-0.1-79.8q-24.8 0.1-49.5 0.1 0.1 41.7 0.1 83.4c16.5-0.1 33-3.6 49.5-3.7zm-49.5 3.7q0-41.7-0.1-83.4-24.4 0.1-48.8 0.1 0.1 41.7 0.2 83.3 24.3 0 48.7 0zm-48.7 0q-0.1-41.6-0.2-83.3-20.8 0-41.7 0.1 0.1 41.6 0.2 83.3 20.8 0 41.7-0.1zm-41.7 0.1q-0.1-41.7-0.2-83.3c-7.2 0-30.2 0-37.4 0q0 41.7 0.1 83.4c7.3 0 30.2-0.1 37.5-0.1zm215.4-83.7q-0.1-40.6-0.2-81.1-13 0-26 0 0 40.6 0.1 81.2 13-0.1 26.1-0.1zm-26.1 0.1q-0.1-40.6-0.1-81.2-24.8 0.1-49.6 0.1 0.1 40.6 0.2 81.1 24.7 0 49.5 0zm-49.5 0q-0.1-40.5-0.2-81.1-24.7 0.1-49.5 0.1 0.1 40.6 0.2 81.1 24.7 0 49.5-0.1zm-49.5 0.1q-0.1-40.5-0.2-81.1-24.3 0-48.7 0.1 0 40.5 0.1 81.1 24.4 0 48.8-0.1zm-48.8 0.1q-0.1-40.6-0.1-81.1-20.9 0-41.7 0.1 0.1 40.5 0.1 81.1 20.9-0.1 41.7-0.1zm-41.7 0.1q0-40.6-0.1-81.1c-7.3 0-30.2 0-37.5 0q0.1 40.6 0.2 81.1c7.2 0 30.2 0 37.4 0zm215.4-81.5q-0.1-48.3-0.2-96.5-13 0-26 0 0.1 48.3 0.2 96.5 13 0 26 0zm-26 0q-0.1-48.2-0.2-96.5-24.8 0.1-49.5 0.1 0.1 48.3 0.1 96.5 24.8 0 49.6-0.1zm-49.6 0.1q0-48.2-0.1-96.5-24.8 0.1-49.5 0.1 0.1 48.3 0.1 96.5 24.8 0 49.5-0.1zm-49.5 0.1q0-48.2-0.1-96.5-24.4 0.1-48.8 0.1 0.1 48.2 0.2 96.5 24.4-0.1 48.7-0.1zm-48.7 0.1q-0.1-48.3-0.2-96.5-20.8 0-41.7 0.1 0.1 48.2 0.2 96.5 20.8-0.1 41.7-0.1zm-41.7 0.1q-0.1-48.3-0.2-96.5c-7.2 0-30.2 0-37.5 0q0.1 48.3 0.2 96.5c7.3 0 30.2 0 37.5 0zm215.3-96.9q0-42.8-0.1-85.5-13 0-26.1 0 0.1 42.8 0.2 85.5 13 0 26 0zm-26 0q-0.1-42.7-0.2-85.5-24.7 0.1-49.5 0.1 0.1 42.8 0.2 85.5 24.7 0 49.5-0.1zm-49.5 0.1q-0.1-42.7-0.2-85.5-24.7 0.1-49.5 0.1 0.1 42.8 0.2 85.5 24.7 0 49.5-0.1zm-49.5 0.1q-0.1-42.7-0.2-85.5-24.4 0-48.7 0.1 0 42.7 0.1 85.5 24.4 0 48.8-0.1zm-48.8 0.1q-0.1-42.8-0.1-85.5-20.9 0-41.7 0.1 0 42.7 0.1 85.5 20.9-0.1 41.7-0.1zm-41.7 0.1q-0.1-42.8-0.1-85.5c-7.3 0-30.2 0-37.5 0q0.1 42.8 0.1 85.5c7.3 0 30.3 0 37.5 0zm215.4-85.9q0-26.9-0.1-53.9-13 0.1-26.1 0.1 0.1 26.9 0.1 53.8 13.1 0 26.1 0zm-26.1 0q0-26.9-0.1-53.8-24.7 0-49.5 0.1 0.1 26.9 0.1 53.8 24.8 0 49.5-0.1zm-49.5 0.1q0-26.9-0.1-53.8-24.7 0-49.5 0.1 0.1 26.9 0.1 53.8 24.8 0 49.5-0.1zm-49.5 0.1q0-26.9-0.1-53.8-24.3 0-48.7 0 0 27 0.1 53.9 24.3-0.1 48.7-0.1zm-48.7 0.1q-0.1-26.9-0.1-53.9-20.9 0.1-41.7 0.1 0 26.9 0.1 53.9 20.8-0.1 41.7-0.1zm-41.7 0.1q-0.1-27-0.1-53.9c-7.3 0-30.2 0.1-37.5 0.1q0.1 26.9 0.1 53.8c7.3 0 30.2 0 37.5 0z"/>
		<path id="&lt;Mesh&gt;" class="s2" d="m910 252.1c0-26.5 0-13.3-0.1-39.9q-14.4 0.1-28.8 0.1c0 26.5 0.1 13.3 0.1 39.9q14.4 0 28.8-0.1zm-28.8 0.1c0-26.6-0.1-13.4-0.1-39.9-18.3 0-36.5-3.5-54.8-3.4 0.1 26.5 0.1 16.8 0.2 43.4q27.4-0.1 54.7-0.1zm-54.7 0.1c-0.1-26.6-0.1-16.9-0.2-43.4-18.2 0-36.5 3.6-54.7 3.6 0 26.5 0.1 13.3 0.1 39.9q27.4-0.1 54.8-0.1zm-54.8 0.1c0-26.6-0.1-13.4-0.1-39.9q-27 0-53.9 0.1c0 26.5 0.1 13.3 0.1 39.9q27-0.1 53.9-0.1zm-53.9 0.1c0-26.6-0.1-13.4-0.1-39.9q-23.1 0-46.1 0.1c0 26.5 0.1 13.3 0.1 39.8q23.1 0 46.1 0zm-46.1 0c0-26.5-0.1-13.3-0.1-39.8-8.1 0-33.4 0-41.5 0 0.1 26.6 0.1 13.4 0.2 39.9 8 0 33.4 0 41.4-0.1zm238.2-40.3q-0.1-41.6-0.1-83.3-14.4 0-28.8 0.1 0 41.6 0.1 83.3 14.4 0 28.8-0.1zm-28.8 0.1q-0.1-41.7-0.1-83.3-27.4 0-54.8 0.1c0.1 27.7 0.1 52 0.1 79.8 18.3-0.1 36.5 3.4 54.8 3.4zm-54.8-3.4c0-27.8 0-52.1-0.1-79.8q-27.4 0-54.7 0.1 0 41.6 0.1 83.3c18.2 0 36.5-3.6 54.7-3.6zm-54.7 3.6q-0.1-41.7-0.1-83.3-27 0-54 0.1 0.1 41.6 0.2 83.3 26.9-0.1 53.9-0.1zm-53.9 0.1q-0.1-41.7-0.2-83.3-23 0-46.1 0 0.1 41.7 0.2 83.4 23-0.1 46.1-0.1zm-46.1 0.1q-0.1-41.7-0.2-83.4c-8 0-33.4 0.1-41.4 0.1q0.1 41.7 0.1 83.3c8.1 0 33.4 0 41.5 0zm238.2-83.8q-0.1-40.5-0.2-81.1-14.4 0-28.8 0 0.1 40.6 0.2 81.2 14.4-0.1 28.8-0.1zm-28.8 0.1q-0.1-40.6-0.2-81.2-27.4 0.1-54.7 0.1 0 40.6 0.1 81.2 27.4-0.1 54.8-0.1zm-54.8 0.1q-0.1-40.6-0.1-81.2-27.4 0.1-54.8 0.1 0.1 40.6 0.2 81.2 27.3-0.1 54.7-0.1zm-54.7 0.1q-0.1-40.6-0.2-81.2-26.9 0.1-53.9 0.1 0.1 40.6 0.1 81.2 27-0.1 54-0.1zm-54 0.1q0-40.6-0.1-81.2-23.1 0.1-46.1 0.1 0.1 40.6 0.1 81.1 23.1 0 46.1 0zm-46.1 0q0-40.5-0.1-81.1c-8 0-33.4 0.1-41.4 0.1q0 40.5 0.1 81.1c8 0 33.4-0.1 41.4-0.1zm238.2-81.5q-0.1-48.2-0.1-96.5-14.4 0-28.9 0.1 0.1 48.2 0.2 96.4 14.4 0 28.8 0zm-28.8 0q-0.1-48.2-0.2-96.4-27.3 0-54.7 0.1 0.1 48.2 0.2 96.4 27.3 0 54.7-0.1zm-54.7 0.1q-0.1-48.2-0.2-96.4-27.4 0-54.7 0.1 0 48.2 0.1 96.4 27.4 0 54.8-0.1zm-54.8 0.1q-0.1-48.2-0.1-96.4-27 0-54 0 0.1 48.3 0.2 96.5 27 0 53.9-0.1zm-53.9 0.1q-0.1-48.2-0.2-96.5-23 0.1-46.1 0.1 0.1 48.3 0.2 96.5 23 0 46.1-0.1zm-46.1 0.1q-0.1-48.2-0.2-96.5c-8 0-33.4 0.1-41.4 0.1q0.1 48.2 0.2 96.5c8 0 33.4-0.1 41.4-0.1zm238.2-96.9q-0.1-42.7-0.2-85.5-14.4 0-28.8 0 0.1 42.8 0.1 85.6 14.5-0.1 28.9-0.1zm-28.9 0.1q0-42.8-0.1-85.6-27.4 0.1-54.7 0.1 0 42.8 0.1 85.6 27.4-0.1 54.7-0.1zm-54.7 0.1q-0.1-42.8-0.1-85.6-27.4 0.1-54.8 0.1 0.1 42.8 0.2 85.6 27.3-0.1 54.7-0.1zm-54.7 0.1q-0.1-42.8-0.2-85.6-27 0.1-53.9 0.1 0.1 42.8 0.1 85.5 27 0 54 0zm-54 0q0-42.7-0.1-85.5-23.1 0.1-46.1 0.1 0.1 42.8 0.1 85.5 23.1 0 46.1-0.1zm-46.1 0.1q0-42.7-0.1-85.5c-8.1 0-33.4 0.1-41.5 0.1q0.1 42.7 0.2 85.5c8 0 33.4-0.1 41.4-0.1zm238.2-85.9q0-26.9-0.1-53.8-14.4 0-28.8 0 0.1 26.9 0.1 53.8 14.4 0 28.8 0zm-28.8 0q0-26.9-0.1-53.8-27.4 0.1-54.7 0.1 0 26.9 0.1 53.8 27.3 0 54.7-0.1zm-54.7 0.1q-0.1-26.9-0.1-53.8-27.4 0.1-54.8 0.1 0.1 26.9 0.1 53.8 27.4 0 54.8-0.1zm-54.8 0.1q0-26.9-0.1-53.8-27 0-53.9 0.1 0 26.9 0.1 53.8 26.9 0 53.9-0.1zm-53.9 0.1q-0.1-26.9-0.1-53.8-23.1 0-46.1 0.1 0 26.9 0.1 53.8 23 0 46.1-0.1zm-46.1 0.1q-0.1-26.9-0.1-53.8c-8 0-33.4 0-41.5 0q0.1 27 0.1 53.9c8.1 0 33.4-0.1 41.5-0.1z"/>
		<path id="&lt;Mesh&gt;" class="s3" d="m1165.9 251.8c-0.1-26.5-0.1-13.3-0.2-39.9q-13 0.1-26 0.1c0 26.5 0.1 13.3 0.1 39.9q13.1-0.1 26.1-0.1zm-26.1 0.1c0-26.6-0.1-13.4-0.1-39.9-16.5 0-33-3.5-49.5-3.5 0 26.6 0.1 16.9 0.1 43.5q24.8-0.1 49.5-0.1zm-49.5 0.1c0-26.6-0.1-16.9-0.1-43.5-16.5 0.1-33 3.6-49.5 3.7 0 26.5 0.1 13.3 0.1 39.8q24.8 0 49.5 0zm-49.5 0c0-26.5-0.1-13.3-0.1-39.8q-24.4 0-48.8 0c0.1 26.6 0.1 13.4 0.1 39.9q24.4 0 48.8-0.1zm-48.8 0.1c0-26.5 0-13.3-0.1-39.9q-20.8 0.1-41.7 0.1c0.1 26.5 0.1 13.4 0.2 39.9q20.8 0 41.6-0.1zm-41.6 0.1c-0.1-26.5-0.1-13.4-0.2-39.9-7.2 0-30.2 0.1-37.5 0.1 0.1 26.5 0.1 13.3 0.2 39.9 7.2-0.1 30.2-0.1 37.5-0.1zm215.3-40.3q0-41.6-0.1-83.3-13 0-26.1 0.1 0.1 41.6 0.2 83.3 13 0 26-0.1zm-26 0.1q-0.1-41.7-0.2-83.3-24.7 0-49.5 0c0.1 27.8 0.1 52.1 0.2 79.8 16.5 0 33 3.5 49.5 3.5zm-49.5-3.5c-0.1-27.7-0.1-52-0.2-79.8q-24.7 0.1-49.5 0.1 0.1 41.7 0.2 83.4c16.5-0.1 33-3.6 49.5-3.7zm-49.5 3.7q-0.1-41.7-0.2-83.4-24.3 0.1-48.7 0.1 0 41.7 0.1 83.3 24.4 0 48.8 0zm-48.8 0q-0.1-41.6-0.1-83.3-20.9 0.1-41.7 0.1 0.1 41.6 0.1 83.3 20.9 0 41.7-0.1zm-41.7 0.1q0-41.7-0.1-83.3c-7.3 0-30.2 0-37.5 0.1q0.1 41.6 0.1 83.3c7.3 0 30.3-0.1 37.5-0.1zm215.4-83.7q-0.1-40.6-0.1-81.1-13.1 0-26.1 0 0.1 40.6 0.1 81.2 13.1-0.1 26.1-0.1zm-26.1 0.1q0-40.6-0.1-81.2-24.7 0.1-49.5 0.1 0.1 40.6 0.1 81.1 24.8 0 49.5 0zm-49.5 0q0-40.5-0.1-81.1-24.8 0.1-49.5 0.1 0.1 40.6 0.1 81.1 24.8 0 49.5-0.1zm-49.5 0.1q0-40.5-0.1-81.1-24.4 0-48.8 0.1 0.1 40.6 0.2 81.1 24.4 0 48.7-0.1zm-48.7 0.1q-0.1-40.5-0.2-81.1-20.8 0-41.7 0.1 0.1 40.5 0.2 81.1 20.8 0 41.7-0.1zm-41.7 0.1q-0.1-40.6-0.2-81.1c-7.2 0-30.2 0-37.4 0q0 40.6 0.1 81.2c7.3-0.1 30.2-0.1 37.5-0.1zm215.4-81.5q-0.1-48.3-0.2-96.5-13 0-26.1 0.1 0.1 48.2 0.2 96.4 13 0 26.1 0zm-26.1 0q-0.1-48.2-0.2-96.4-24.7 0-49.5 0 0.1 48.3 0.2 96.5 24.8 0 49.5-0.1zm-49.5 0.1q-0.1-48.2-0.2-96.5-24.7 0.1-49.5 0.1 0.1 48.3 0.2 96.5 24.7 0 49.5-0.1zm-49.5 0.1q-0.1-48.2-0.2-96.5-24.4 0.1-48.7 0.1 0 48.2 0.1 96.5 24.4-0.1 48.8-0.1zm-48.8 0.1q-0.1-48.3-0.1-96.5-20.9 0-41.7 0.1 0.1 48.2 0.1 96.5 20.9-0.1 41.7-0.1zm-41.7 0.1q0-48.3-0.1-96.5c-7.3 0-30.2 0-37.5 0q0.1 48.3 0.2 96.5c7.2 0 30.2 0 37.4 0zm215.4-96.9q-0.1-42.8-0.1-85.5-13.1 0-26.1 0 0.1 42.8 0.1 85.6 13.1-0.1 26.1-0.1zm-26.1 0.1q0-42.8-0.1-85.6-24.8 0.1-49.5 0.1 0.1 42.8 0.1 85.5 24.8 0 49.5 0zm-49.5 0q0-42.7-0.1-85.5-24.8 0.1-49.5 0.1 0.1 42.8 0.1 85.5 24.8 0 49.5-0.1zm-49.5 0.1q0-42.7-0.1-85.5-24.4 0-48.8 0.1 0.1 42.7 0.2 85.5 24.3 0 48.7-0.1zm-48.7 0.1q-0.1-42.8-0.2-85.5-20.8 0-41.7 0.1 0.1 42.7 0.2 85.5 20.8-0.1 41.7-0.1zm-41.7 0.1q-0.1-42.8-0.2-85.5c-7.2 0-30.2 0-37.4 0q0 42.8 0.1 85.5c7.3 0 30.2 0 37.5 0zm215.4-85.9q-0.1-26.9-0.1-53.8-13.1 0-26.1 0 0 26.9 0.1 53.8 13 0 26.1 0zm-26.1 0q-0.1-26.9-0.1-53.8-24.8 0-49.5 0.1 0 26.9 0.1 53.8 24.7 0 49.5-0.1zm-49.5 0.1q-0.1-26.9-0.1-53.8-24.8 0-49.5 0.1 0 26.9 0.1 53.8 24.7 0 49.5-0.1zm-49.5 0.1q-0.1-26.9-0.1-53.8-24.4 0-48.8 0.1 0.1 26.9 0.1 53.8 24.4-0.1 48.8-0.1zm-48.8 0.1q0-26.9-0.1-53.8-20.8 0-41.7 0 0.1 26.9 0.1 53.9 20.9-0.1 41.7-0.1zm-41.7 0.1q0-27-0.1-53.9c-7.2 0-30.2 0.1-37.4 0.1q0 26.9 0.1 53.8c7.2 0 30.2 0 37.4 0z"/>
		<path id="&lt;Mesh&gt;" class="s4" d="m636.1 656.3c0-25.4-0.1-12.8-0.1-38.3q-13.1 0.1-26.1 0.1c0.1 25.5 0.1 12.8 0.1 38.3q13.1-0.1 26.1-0.1zm-26.1 0.1c0-25.5 0-12.8-0.1-38.3-16.5 0-33-3.3-49.5-3.3 0.1 25.4 0.1 16.2 0.1 41.6q24.8 0 49.5 0zm-49.5 0c0-25.4 0-16.2-0.1-41.6-16.5 0-33 3.4-49.5 3.5 0 25.4 0.1 12.8 0.1 38.2q24.8 0 49.5-0.1zm-49.5 0.1c0-25.4-0.1-12.8-0.1-38.2q-24.4 0-48.8 0c0.1 25.5 0.1 12.9 0.2 38.3q24.3 0 48.7-0.1zm-48.7 0.1c-0.1-25.4-0.1-12.8-0.2-38.3q-20.8 0.1-41.7 0.1c0.1 25.5 0.1 12.8 0.2 38.3q20.8 0 41.7-0.1zm-41.7 0.1c-0.1-25.5-0.1-12.8-0.2-38.3-7.2 0-30.2 0.1-37.4 0.1 0 25.4 0.1 12.8 0.1 38.3 7.3-0.1 30.2-0.1 37.5-0.1zm215.4-38.7q-0.1-39.9-0.2-79.9-13 0-26 0 0.1 40 0.1 80 13 0 26.1-0.1zm-26.1 0.1q0-40-0.1-80-24.8 0.1-49.5 0.1c0 26.7 0.1 49.9 0.1 76.6 16.5 0 33 3.3 49.5 3.3zm-49.5-3.3c0-26.7-0.1-49.9-0.1-76.6q-24.8 0.1-49.5 0.1 0 40 0.1 80c16.5-0.1 33-3.5 49.5-3.5zm-49.5 3.5q-0.1-40-0.1-80-24.4 0-48.8 0.1 0.1 40 0.1 79.9 24.4 0 48.8 0zm-48.8 0q0-39.9-0.1-79.9-20.8 0-41.7 0.1 0.1 39.9 0.1 79.9 20.9 0 41.7-0.1zm-41.7 0.1q0-40-0.1-79.9c-7.2 0-30.2 0-37.5 0q0.1 40 0.2 80c7.2 0 30.2-0.1 37.4-0.1zm215.4-80.3q0-38.9-0.1-77.9-13 0.1-26.1 0.1 0.1 38.9 0.2 77.8 13 0 26 0zm-26 0q-0.1-38.9-0.2-77.8-24.7 0-49.5 0.1 0.1 38.9 0.2 77.8 24.7 0 49.5-0.1zm-49.5 0.1q-0.1-38.9-0.2-77.8-24.7 0-49.5 0 0.1 39 0.2 77.9 24.7 0 49.5-0.1zm-49.5 0.1q-0.1-38.9-0.2-77.9-24.3 0.1-48.7 0.1 0 39 0.1 77.9 24.4-0.1 48.8-0.1zm-48.8 0.1q-0.1-38.9-0.1-77.9-20.9 0.1-41.7 0.1 0 38.9 0.1 77.9 20.9-0.1 41.7-0.1zm-41.7 0.1q-0.1-39-0.1-77.9c-7.3 0-30.2 0.1-37.5 0.1q0.1 38.9 0.1 77.8c7.3 0 30.3 0 37.5 0zm215.4-78.3q-0.1-46.3-0.2-92.6-13 0.1-26 0.1 0.1 46.3 0.1 92.6 13.1 0 26.1-0.1zm-26.1 0.1q0-46.3-0.1-92.6-24.8 0-49.5 0.1 0.1 46.3 0.1 92.6 24.8-0.1 49.5-0.1zm-49.5 0.1q0-46.3-0.1-92.6-24.8 0-49.5 0.1 0.1 46.3 0.1 92.5 24.8 0 49.5 0zm-49.5 0q0-46.2-0.1-92.5-24.4 0-48.8 0 0.1 46.3 0.2 92.6 24.4 0 48.7-0.1zm-48.7 0.1q-0.1-46.3-0.2-92.6-20.8 0.1-41.7 0.1 0.1 46.3 0.2 92.6 20.8 0 41.7-0.1zm-41.7 0.1q-0.1-46.3-0.2-92.6c-7.2 0-30.2 0.1-37.5 0.1q0.1 46.3 0.2 92.6c7.3 0 30.2-0.1 37.5-0.1zm215.3-93q0-41-0.1-82-13 0-26.1 0 0.1 41.1 0.2 82.1 13 0 26-0.1zm-26 0.1q-0.1-41-0.2-82.1-24.7 0.1-49.5 0.1 0.1 41 0.2 82.1 24.7-0.1 49.5-0.1zm-49.5 0.1q-0.1-41.1-0.2-82.1-24.7 0.1-49.5 0.1 0.1 41 0.2 82.1 24.7-0.1 49.5-0.1zm-49.5 0.1q-0.1-41.1-0.2-82.1-24.4 0-48.7 0.1 0 41 0.1 82 24.4 0 48.8 0zm-48.8 0q-0.1-41-0.1-82-20.9 0-41.7 0.1 0 41 0.1 82 20.9 0 41.7-0.1zm-41.7 0.1q-0.1-41-0.1-82c-7.3 0-30.2 0-37.5 0q0.1 41.1 0.1 82.1c7.3 0 30.3-0.1 37.5-0.1zm215.4-82.4q0-25.8-0.1-51.7-13 0-26 0.1 0 25.8 0 51.6 13.1 0 26.1 0zm-26.1 0q0-25.8 0-51.6-24.8 0-49.6 0.1 0.1 25.8 0.1 51.6 24.8 0 49.5-0.1zm-49.5 0.1q0-25.8-0.1-51.6-24.7 0-49.5 0 0.1 25.9 0.1 51.7 24.8 0 49.5-0.1zm-49.5 0.1q0-25.8-0.1-51.7-24.3 0.1-48.7 0.1 0 25.9 0.1 51.7 24.3-0.1 48.7-0.1zm-48.7 0.1q-0.1-25.8-0.1-51.7-20.9 0.1-41.7 0.1 0 25.8 0.1 51.7 20.8-0.1 41.7-0.1zm-41.7 0.1q-0.1-25.9-0.1-51.7c-7.3 0-30.2 0-37.5 0.1q0.1 25.8 0.1 51.6c7.3 0 30.2 0 37.5 0z"/>
		<path id="&lt;Mesh&gt;" class="s5" d="m898.1 659.4c-0.1-25.4-0.1-12.8-0.1-38.2q-13.1 0-26.1 0c0 25.5 0.1 12.8 0.1 38.3q13.1 0 26.1-0.1zm-26.1 0.1c0-25.5-0.1-12.8-0.1-38.3-16.5 0-33-3.3-49.5-3.3 0 25.5 0.1 16.2 0.1 41.7q24.8-0.1 49.5-0.1zm-49.5 0.1c0-25.5-0.1-16.2-0.1-41.7-16.5 0-33 3.5-49.5 3.5 0 25.5 0.1 12.8 0.1 38.3q24.8-0.1 49.5-0.1zm-49.5 0.1c0-25.5-0.1-12.8-0.1-38.3q-24.4 0-48.8 0.1c0.1 25.4 0.1 12.8 0.2 38.2q24.3 0 48.7 0zm-48.7 0c-0.1-25.4-0.1-12.8-0.2-38.2q-20.8 0-41.7 0c0.1 25.5 0.1 12.9 0.2 38.3q20.8 0 41.7-0.1zm-41.7 0.1c-0.1-25.4-0.1-12.8-0.2-38.3-7.2 0.1-30.2 0.1-37.4 0.1 0 25.5 0 12.8 0.1 38.3 7.2 0 30.2-0.1 37.5-0.1zm215.4-38.6q-0.1-40-0.2-80-13 0-26 0.1 0 39.9 0.1 79.9 13 0 26.1 0zm-26.1 0q-0.1-40-0.1-79.9-24.8 0-49.5 0c0 26.7 0 50 0.1 76.6 16.5 0 33 3.3 49.5 3.3zm-49.5-3.3c-0.1-26.6-0.1-49.9-0.1-76.6q-24.8 0.1-49.5 0.1 0 40 0.1 80c16.5 0 33-3.5 49.5-3.5zm-49.5 3.5q-0.1-40-0.1-80-24.4 0.1-48.8 0.1 0.1 40 0.1 80 24.4-0.1 48.8-0.1zm-48.8 0.1q0-40-0.1-80-20.9 0.1-41.7 0.1 0.1 40 0.1 79.9 20.9 0 41.7 0zm-41.7 0q0-39.9-0.1-79.9c-7.3 0-30.2 0-37.5 0.1q0.1 39.9 0.2 79.9c7.2 0 30.2 0 37.4-0.1zm215.4-80.3q0-38.9-0.1-77.8-13 0-26.1 0 0.1 38.9 0.2 77.9 13-0.1 26-0.1zm-26 0.1q-0.1-39-0.2-77.9-24.7 0-49.5 0.1 0.1 38.9 0.2 77.8 24.7 0 49.5 0zm-49.5 0q-0.1-38.9-0.2-77.8-24.7 0-49.5 0.1 0.1 38.9 0.2 77.8 24.7 0 49.5-0.1zm-49.5 0.1q-0.1-38.9-0.2-77.8-24.4 0-48.7 0.1 0 38.9 0.1 77.8 24.4 0 48.8-0.1zm-48.8 0.1q-0.1-38.9-0.1-77.8-20.9 0-41.7 0 0 39 0.1 77.9 20.8 0 41.7-0.1zm-41.7 0.1q-0.1-38.9-0.1-77.9c-7.3 0-30.3 0.1-37.5 0.1q0.1 38.9 0.1 77.9c7.3-0.1 30.2-0.1 37.5-0.1zm215.4-78.2q-0.1-46.3-0.2-92.6-13 0-26 0 0.1 46.3 0.1 92.6 13.1 0 26.1 0zm-26.1 0q0-46.3-0.1-92.6-24.8 0.1-49.5 0.1 0 46.3 0.1 92.6 24.8-0.1 49.5-0.1zm-49.5 0.1q-0.1-46.3-0.1-92.6-24.8 0.1-49.5 0.1 0 46.3 0.1 92.6 24.8-0.1 49.5-0.1zm-49.5 0.1q-0.1-46.3-0.1-92.6-24.4 0-48.8 0.1 0.1 46.3 0.2 92.6 24.3-0.1 48.7-0.1zm-48.7 0.1q-0.1-46.3-0.2-92.6-20.9 0-41.7 0 0.1 46.3 0.2 92.6 20.8 0 41.7 0zm-41.7 0q-0.1-46.3-0.2-92.6c-7.3 0.1-30.2 0.1-37.5 0.1q0.1 46.3 0.2 92.6c7.2 0 30.2-0.1 37.5-0.1zm215.3-92.9q0-41.1-0.1-82.1-13 0-26.1 0.1 0.1 41 0.2 82 13 0 26 0zm-26 0q-0.1-41-0.2-82-24.7 0-49.5 0 0.1 41.1 0.2 82.1 24.7 0 49.5-0.1zm-49.5 0.1q-0.1-41-0.2-82.1-24.7 0.1-49.5 0.1 0.1 41.1 0.2 82.1 24.7 0 49.5-0.1zm-49.5 0.1q-0.1-41-0.2-82.1-24.4 0.1-48.7 0.1 0 41 0.1 82.1 24.4-0.1 48.8-0.1zm-48.8 0.1q-0.1-41.1-0.1-82.1-20.9 0.1-41.7 0.1 0 41 0.1 82 20.8 0 41.7 0zm-41.7 0q-0.1-41-0.1-82c-7.3 0-30.3 0-37.5 0.1q0.1 41 0.1 82c7.3 0 30.2 0 37.5-0.1zm215.4-82.4q-0.1-25.8-0.1-51.6-13 0-26.1 0 0.1 25.8 0.1 51.7 13.1-0.1 26.1-0.1zm-26.1 0.1q0-25.9-0.1-51.7-24.7 0-49.5 0.1 0.1 25.8 0.1 51.6 24.8 0 49.5 0zm-49.5 0q0-25.8-0.1-51.6-24.7 0-49.5 0.1 0.1 25.8 0.1 51.6 24.8 0 49.5-0.1zm-49.5 0.1q0-25.8-0.1-51.6-24.4 0-48.7 0.1 0 25.8 0.1 51.6 24.3 0 48.7-0.1zm-48.7 0.1q-0.1-25.8-0.1-51.6-20.9 0-41.7 0 0 25.9 0.1 51.7 20.8 0 41.7-0.1zm-41.7 0.1q-0.1-25.8-0.1-51.7c-7.3 0-30.2 0.1-37.5 0.1q0 25.8 0.1 51.7c7.2-0.1 30.2-0.1 37.5-0.1z"/>
		<path id="&lt;Mesh&gt;" class="s6" d="m1163.5 654.3c-0.1-25.4-0.1-12.8-0.1-38.3q-13.1 0.1-26.1 0.1c0 25.5 0.1 12.8 0.1 38.3q13.1-0.1 26.1-0.1zm-26.1 0.1c0-25.5-0.1-12.8-0.1-38.3-16.5 0-33-3.3-49.5-3.3 0 25.4 0.1 16.2 0.1 41.6q24.8 0 49.5 0zm-49.5 0c0-25.4-0.1-16.2-0.1-41.6-16.5 0-33 3.4-49.5 3.5 0 25.4 0.1 12.8 0.1 38.2q24.8 0 49.5-0.1zm-49.5 0.1c0-25.4-0.1-12.8-0.1-38.2q-24.4 0-48.8 0c0.1 25.5 0.1 12.9 0.2 38.3q24.3 0 48.7-0.1zm-48.7 0.1c-0.1-25.4-0.1-12.8-0.2-38.3q-20.8 0.1-41.7 0.1c0.1 25.5 0.1 12.8 0.2 38.3q20.8 0 41.7-0.1zm-41.7 0.1c-0.1-25.5-0.1-12.8-0.2-38.3-7.2 0-30.2 0.1-37.4 0.1 0 25.4 0 12.8 0.1 38.3 7.2-0.1 30.2-0.1 37.5-0.1zm215.4-38.7q-0.1-39.9-0.2-79.9-13 0-26 0 0 40 0.1 80 13 0 26.1-0.1zm-26.1 0.1q-0.1-40-0.1-80-24.8 0.1-49.5 0.1c0 26.7 0 49.9 0.1 76.6 16.5 0 33 3.3 49.5 3.3zm-49.5-3.3c-0.1-26.7-0.1-49.9-0.1-76.6q-24.8 0.1-49.6 0.1 0.1 40 0.2 80c16.5-0.1 33-3.5 49.5-3.5zm-49.5 3.5q-0.1-40-0.2-80-24.3 0-48.7 0.1 0.1 40 0.1 79.9 24.4 0 48.8 0zm-48.8 0q0-39.9-0.1-79.9-20.9 0-41.7 0.1 0.1 39.9 0.1 79.9 20.9 0 41.7-0.1zm-41.7 0.1q0-40-0.1-79.9c-7.3 0-30.2 0-37.5 0q0.1 40 0.2 80c7.2 0 30.2-0.1 37.4-0.1zm215.4-80.3q0-38.9-0.1-77.9-13 0.1-26.1 0.1 0.1 38.9 0.2 77.8 13 0 26 0zm-26 0q-0.1-38.9-0.2-77.8-24.7 0-49.5 0.1 0.1 38.9 0.2 77.8 24.7 0 49.5-0.1zm-49.5 0.1q-0.1-38.9-0.2-77.8-24.7 0-49.5 0 0.1 39 0.1 77.9 24.8 0 49.6-0.1zm-49.6 0.1q0-38.9-0.1-77.9-24.4 0.1-48.7 0.1 0 39 0.1 77.9 24.4-0.1 48.7-0.1zm-48.7 0.1q-0.1-38.9-0.1-77.9-20.9 0.1-41.7 0.1 0 38.9 0.1 77.9 20.8-0.1 41.7-0.1zm-41.7 0.1q-0.1-39-0.1-77.9c-7.3 0-30.3 0.1-37.5 0.1q0.1 38.9 0.1 77.8c7.3 0 30.2 0 37.5 0zm215.4-78.3q-0.1-46.3-0.2-92.6-13 0.1-26 0.1 0.1 46.3 0.1 92.6 13.1 0 26.1-0.1zm-26.1 0.1q0-46.3-0.1-92.6-24.8 0-49.5 0.1 0 46.3 0.1 92.6 24.8-0.1 49.5-0.1zm-49.5 0.1q-0.1-46.3-0.1-92.6-24.8 0-49.5 0.1 0 46.3 0.1 92.5 24.8 0 49.5 0zm-49.5 0q-0.1-46.2-0.1-92.5-24.4 0-48.8 0 0.1 46.3 0.2 92.6 24.3 0 48.7-0.1zm-48.7 0.1q-0.1-46.3-0.2-92.6-20.9 0.1-41.7 0.1 0.1 46.3 0.2 92.6 20.8 0 41.7-0.1zm-41.7 0.1q-0.1-46.3-0.2-92.6c-7.3 0-30.2 0.1-37.5 0.1q0.1 46.3 0.2 92.6c7.2 0 30.2-0.1 37.5-0.1zm215.3-93q0-41-0.1-82-13 0-26.1 0 0.1 41.1 0.2 82.1 13 0 26-0.1zm-26 0.1q-0.1-41-0.2-82.1-24.7 0.1-49.5 0.1 0.1 41 0.2 82.1 24.7-0.1 49.5-0.1zm-49.5 0.1q-0.1-41.1-0.2-82.1-24.7 0.1-49.5 0.1 0.1 41 0.2 82.1 24.7-0.1 49.5-0.1zm-49.5 0.1q-0.1-41.1-0.2-82.1-24.4 0-48.7 0.1 0 41 0.1 82 24.4 0 48.8 0zm-48.8 0q-0.1-41-0.1-82-20.9 0-41.7 0.1 0 41 0.1 82 20.8 0 41.7-0.1zm-41.7 0.1q-0.1-41-0.1-82c-7.3 0-30.3 0-37.5 0q0.1 41.1 0.1 82.1c7.3 0 30.2-0.1 37.5-0.1zm215.4-82.4q-0.1-25.8-0.1-51.7-13 0-26.1 0.1 0.1 25.8 0.1 51.6 13.1 0 26.1 0zm-26.1 0q0-25.8-0.1-51.6-24.7 0-49.5 0.1 0.1 25.8 0.1 51.6 24.8 0 49.5-0.1zm-49.5 0.1q0-25.8-0.1-51.6-24.7 0-49.5 0 0.1 25.9 0.1 51.7 24.8 0 49.5-0.1zm-49.5 0.1q0-25.8-0.1-51.7-24.4 0.1-48.7 0.1 0 25.9 0.1 51.7 24.3-0.1 48.7-0.1zm-48.7 0.1q-0.1-25.8-0.1-51.7-20.9 0.1-41.7 0.1 0 25.8 0.1 51.7 20.8-0.1 41.7-0.1zm-41.7 0.1q-0.1-25.9-0.1-51.7c-7.3 0-30.2 0-37.5 0.1q0 25.8 0.1 51.6c7.2 0 30.2 0 37.5 0z"/>
		<g id="&lt;Group&gt;">
			<g id="&lt;Group&gt;">
				<g id="&lt;Group&gt;">
					<g id="&lt;Group&gt;">
						<path id="&lt;Path&gt;" class="s7" d="m223.7 215.1c-21.5 22.7-50 34.6-78.8 35.8-17.9 0.7-34.3-10.5-39.4-27.7q-0.1-0.1-0.1-0.2 0-0.1-0.1-0.2 0 0 0 0c-0.9-3.3-9.2-33.1 9.6-60.2l-0.7-0.8-0.8-0.8c-21.6 15-45 12.8-55.2 10.8q-0.1 0-0.2 0-0.6-0.1-1.1-0.2-1.8-0.5-3.8-1.1c-17.4-5.1-28.8-21.5-28-39.6 1.2-27.8 12.4-55.3 33.6-76.5 45.4-45.4 119.1-45 164 1.1 42.9 44 43.3 115.1 1 159.6z"/>
						<path id="&lt;Path&gt;" class="s8" d="m170.8 99.9c-6.4 2.7-12.3 6.5-17.4 11.2-1 1-2.4 1.5-3.9 1.3l-33.6-4c-5.1-0.6-9.9 2.1-12 6.8-0.6 1.3 0.1 2.8 1.5 3.3l28.8 9.3c1.4 0.4 1.9 2.1 0.9 3.2l-22 25.3c-1.5 1.7-3.7 2.6-5.9 2.4l-13.7-1.4c-0.7-0.1-1.1 0.7-0.6 1.3l4.5 4.5c1 1 2.2 1.5 3.6 1.5l2.8 0.1c4.1 0.1 7.4 3.4 7.5 7.4v2.9c0.1 1.3 0.6 2.6 1.5 3.5l4.6 4.6c0.5 0.5 1.4 0.1 1.3-0.6l-1.4-13.7c-0.2-2.2 0.6-4.4 2.3-5.9l25.4-22.1c1.1-0.9 2.7-0.4 3.2 0.9l9.3 28.8c0.4 1.4 1.9 2.2 3.3 1.6 4.6-2.1 7.4-7 6.8-12l-4-33.7c-0.2-1.4 0.3-2.8 1.3-3.9 4.7-5.1 8.5-10.9 11.1-17.4 0.7-1.5 0.3-3.2-0.8-4.3-1.2-1.2-2.9-1.5-4.4-0.9z"/>
					</g>
				</g>
			</g>
		</g>
	</g>
</svg>