<svg version="1.2" xmlns="http://www.w3.org/2000/svg" viewBox="0 0 464 346" width="464" height="346">
	<title>4074772-ai</title>
	<defs>
		<clipPath clipPathUnits="userSpaceOnUse" id="cp1">
			<path d="m440.46 798.05h-416.11c-4.34 0-7.85-3.51-7.85-7.84v-751.97c0-4.33 3.51-7.84 7.85-7.84h416.11c4.33 0 7.85 3.51 7.85 7.84v751.97c0 4.33-3.52 7.84-7.85 7.84z"/>
		</clipPath>
		<clipPath clipPathUnits="userSpaceOnUse" id="cp2">
			<path d="m440.46 798.05h-416.11c-4.34 0-7.85-3.51-7.85-7.84v-751.97c0-4.33 3.51-7.84 7.85-7.84h416.11c4.33 0 7.85 3.51 7.85 7.84v751.97c0 4.33-3.52 7.84-7.85 7.84z"/>
		</clipPath>
	</defs>
	<style>
		.s0 { fill: none;stroke: #9a74ec;stroke-linecap: round;stroke-linejoin: round;stroke-width: .4 } 
		.s1 { fill: #9a74ec } 
		.s2 { fill: #ffffff } 
	</style>
	<g id="OBJECTS">
		<g id="&lt;Group&gt;">
			<g id="&lt;Group&gt;">
				<g id="&lt;Clip Group&gt;" clip-path="url(#cp1)">
				</g>
				<g id="&lt;Group&gt;">
					<g id="&lt;Clip Group&gt;" clip-path="url(#cp2)">
						<g id="&lt;Group&gt;">
							<g id="&lt;Group&gt;">
								<path id="&lt;Path&gt;" class="s0" d="m328.7 237.6c0.5 0.7 0.9 1.3 1.1 2 0.3 0.6 0.5 1.3 0.7 2 0.1 0.7 0.2 1.5 0.2 2.5 0 1-0.1 2.1-0.2 3.4q-0.1 0-0.2 0-0.1 0-0.3 0-0.1 0-0.2-0.1-0.1 0-0.3 0c-0.6 2.7-1.5 5.6-2.5 8.3-0.9 2.7-1.9 5.3-2.9 7.5-0.9 2.2-1.8 4.1-2.4 5.5-0.6 1.3-1 2.1-1 2.2q-0.4 0.7-1.1 1.3-0.7 0.7-1.4 1.3-0.8 0.5-1.6 0.9-0.8 0.3-1.5 0.4-0.3 0-0.5 0-0.3-0.1-0.5-0.1-0.2-0.1-0.4-0.3-0.2-0.1-0.3-0.3-0.1 0-0.1-0.1-0.1-0.1-0.1-0.2-0.1-0.1-0.1-0.2 0-0.1 0-0.2l-0.6-5q0-0.1 0-0.4 0-0.3 0.1-0.6 0.1-0.4 0.2-0.8 0.2-0.5 0.5-1.1 0.3-0.5 0.6-1 0.4-0.5 0.8-1 0.3-0.6 0.6-1.1 0.3-0.5 0.5-1.1 0.2-0.5 0.2-1 0-0.4-0.1-0.9 0-0.4-0.1-0.9-0.1-0.5-0.1-0.9c0-1.2 0-2.1 0.1-2.9 0.1-0.7 0.3-1.3 0.7-1.9 0.4-0.5 1-1.1 1.8-1.7 0.8-0.6 1.8-1.4 3.3-2.3 0.3-0.3 0.6-0.5 0.9-0.8 0.3-0.2 0.6-0.5 0.9-1 0.4-0.4 0.8-1.1 1.4-2 0.6-0.9 1.4-2.1 2.5-3.7q0.2-0.5 0.4-0.9 0.2-0.5 0.4-0.9 0.2-0.5 0.3-0.9 0.2-0.5 0.3-1z"/>
							</g>
							<g id="&lt;Group&gt;">
								<path id="&lt;Path&gt;" class="s0" d="m427.4 197.1q0.1 0.1 0.1 0.2 0 0.1 0 0.2 0 0.1 0 0.3 0 0.1-0.1 0.4c-0.6 3.4-1 6.1-1.4 8.3-0.5 2.2-0.8 4-1.2 5.6-0.4 1.6-0.8 3.1-1.3 4.7-0.4 1.7-1 3.5-1.7 5.8-0.7 1.9-1.5 3.9-2.3 6-0.8 2.1-1.6 4.3-2.5 6.4-0.9 2.2-1.7 4.4-2.6 6.4-0.9 2.1-1.7 4.1-2.5 5.9q-1.5 3-2.8 5.3-1.3 2.2-2.4 3.9-1.2 1.7-2.2 3-1 1.4-1.8 2.4l-0.3-0.4q0.9-2.3 2.1-4.5 1.1-2.2 2.3-4.4 1.2-2.2 2.3-4.5 1.1-2.2 1.9-4.5l5.6-15 0.2-0.4c1.2-1.8 2.2-3.6 3.1-5.4 0.8-1.7 1.6-3.5 2.2-5.2 0.6-1.7 1.1-3.4 1.5-5.2 0.5-1.8 1-3.5 1.4-5.4q0 0.2 0 0.3-0.1 0.2-0.1 0.4 0 0.1 0 0.3 0 0.1 0 0.3 0.5-1.4 0.8-2.8 0.3-1.4 0.6-2.8 0.3-1.4 0.5-2.8 0.3-1.4 0.6-2.8z"/>
							</g>
							<g id="&lt;Group&gt;">
								<path id="&lt;Path&gt;" class="s0" d="m427.4 198.4q0 0 0 0 0 0 0-0.1 0 0 0 0 0-0.1 0-0.1 0.1-0.6 0.2-1.2 0.1-0.6 0.3-1.2 0.1-0.7 0.2-1.4 0.1-0.6 0.2-1.4-0.1 0.7-0.2 1.4-0.1 0.7-0.2 1.4-0.1 0.7-0.2 1.3-0.1 0.7-0.3 1.3z"/>
							</g>
							<g id="&lt;Group&gt;">
								<path id="&lt;Path&gt;" class="s0" d="m428.5 192.3q-0.1 0.1-0.1 0.2 0 0.1 0 0.2 0 0.1 0 0.2-0.1 0-0.1 0.1 0.1-0.3 0.1-0.7 0.1-0.3 0.1-0.7 0.1-0.3 0.1-0.6 0-0.4 0.1-0.7z"/>
							</g>
							<g id="&lt;Group&gt;">
								<path id="&lt;Path&gt;" class="s0" d="m428.7 190.3l0.2-1.8q0 0.1 0 0.3-0.1 0.2-0.1 0.5 0 0.2 0 0.5-0.1 0.3-0.1 0.5z"/>
							</g>
							<g id="&lt;Group&gt;">
								<path id="&lt;Path&gt;" class="s0" d="m423.8 185.2q-0.1 0.2-0.1 0.4-0.1 0.2-0.2 0.5-0.1 0.2-0.2 0.4-0.1 0.2-0.1 0.4 0.2 0.2 0.4 0.3 0.2 0.1 0.3 0.3 0.2 0.1 0.4 0.2 0.1 0.1 0.3 0.3l-0.1 0.2q-0.4 0.7-0.7 1.1-0.3 0.4-0.6 0.7-0.4 0.2-0.6 0.4-0.3 0.1-0.5 0.2 0 0-0.1 0 0 0 0 0-0.1 0-0.1 0 0 0-0.1 0 0 0-0.1 0-0.1 0-0.1 0-0.1 0-0.1 0-0.1 0-0.1 0-0.1 0-0.2 0 0 0-0.1 0 0 0-0.1 0-0.1 0-0.1 0-0.1 0-0.2 0 0 0-0.1 0-0.1 0.1-0.1 0.1-0.1 0-0.2 0 0 0.1-0.1 0.2-0.1 0-0.2 0.1-0.1 0-0.1 0.1-0.1 0.1-0.2 0.1h-0.3q0 0-0.1-0.1-0.1-0.1-0.3-0.1-0.1-0.1-0.2-0.2 0-0.1-0.1-0.2-0.2-0.1-0.3-0.2-0.1-0.1-0.2-0.2 0 0-0.1-0.1-0.1 0-0.3-0.1 0.1-0.4 0.2-0.7 0-0.4 0.1-0.7 0.1-0.3 0.1-0.7 0.1-0.3 0.1-0.7 0.3-0.1 0.5-0.2 0.2-0.1 0.3-0.2 0.2-0.1 0.3-0.1 0.1 0 0.1 0 0.1 0 0.1 0 0 0 0.1 0 0 0 0 0 0 0 0.1 0 0.1 0 0.2 0.1 0.1 0 0.2 0.1 0 0.1 0.1 0.3 0.1 0.1 0.2 0.3 0 0.1 0 0.1 0.1 0.1 0.1 0.1 0 0 0.1 0 0 0.1 0.1 0.1 0 0 0 0 0 0 0 0 0 0 0 0 0 0 0 0 0.1 0 0.2-0.1 0.1 0 0.2-0.1 0.1-0.1 0.2-0.3 0.1-0.2 0.1-0.4 0.1-0.2 0.2-0.3 0-0.2 0.1-0.3 0.1-0.2 0.2-0.3 0-0.1 0.1-0.2 0.1 0 0.1 0 0 0 0 0 0.1 0 0.2-0.1 0.2 0 0.4 0 0 0 0.1-0.1 0 0 0.1 0 0.1-0.1 0.3-0.2 0.2 0 0.5-0.2z"/>
							</g>
							<g id="&lt;Group&gt;">
								<path id="&lt;Path&gt;" class="s0" d="m429 181.2l-0.1 0.4c0 0.2-0.1 0.8-0.1 1.4-0.1 0.7-0.2 1.5-0.4 2.3-0.1 0.7-0.2 1.5-0.3 2.1-0.2 0.6-0.3 1.1-0.3 1.3 0-0.5 0.1-1.2 0.1-1.9 0.1-0.7 0.2-1.4 0.3-2.2 0.2-0.7 0.3-1.4 0.4-2 0.1-0.5 0.2-1 0.3-1.2z"/>
							</g>
							<g id="&lt;Group&gt;">
								<path id="&lt;Path&gt;" class="s0" d="m406.1 160.2q0.3 0 0.5 0 0.2 0.1 0.3 0.2 0.2 0.1 0.4 0.3 0.2 0.2 0.4 0.5 0.1 0.1 0.1 0.1 0.1 0.1 0.2 0.2 0.1 0.1 0.1 0.2 0.1 0.1 0.2 0.2 0.3 0.3 0.6 0.7 0.2 0.4 0.5 0.7 0.2 0.4 0.5 0.8 0.2 0.3 0.5 0.7 0.4 0.5 0.9 0.9 0.5 0.4 1 0.8 0.6 0.4 1.1 0.9 0.5 0.4 0.8 0.9c0.3 0.5 0.5 0.8 0.7 1.1 0.1 0.3 0.2 0.6 0.3 1 0.1 0.3 0.2 0.7 0.2 1.2 0.1 0.5 0.1 1.2 0.2 2 0.4 0.1 0.6 0.4 0.8 0.6 0.2 0.3 0.3 0.6 0.3 1 0.1 0.3 0.1 0.6 0.2 0.9 0.1 0.3 0.2 0.6 0.4 0.9l0.4-0.1q-0.1-0.3-0.1-0.5-0.1-0.2-0.1-0.3 0-0.1-0.1-0.3-0.1-0.2-0.2-0.4 0.1-0.1 0.1-0.2 0.1 0 0.1-0.1 0 0 0.1-0.1 0 0 0-0.1h0.3q0.3 0.6 0.4 1.1 0.2 0.5 0.2 0.9 0 0.5 0 0.9-0.1 0.4-0.2 0.7-0.1 0.4-0.1 0.9-0.1 0.5-0.1 1.1 0 0.5 0.1 1.1 0 0.5 0 1.1c0 0.8 0.1 1.4 0.1 1.9 0 0.4-0.1 0.8-0.1 1.1-0.1 0.3-0.2 0.6-0.4 0.9-0.1 0.3-0.4 0.7-0.7 1.1-0.8-2-1.5-3.4-2-4.6-0.5-1.1-0.8-2-1.1-2.6-0.2-0.6-0.4-1.1-0.6-1.5-0.1-0.4-0.3-0.8-0.5-1.4-0.7-2.2-1.3-3.8-1.8-5.1-0.4-1.2-0.7-2.1-1-2.8-0.3-0.6-0.6-1.1-0.8-1.5-0.3-0.4-0.6-0.7-1-1.2q-1.2-1.5-2-2.6-0.7-1-1.1-1.8-0.3-0.7-0.5-1.2-0.1-0.5-0.2-0.9 0.3-0.1 0.6-0.1 0.2-0.1 0.4-0.1 0.2-0.1 0.4-0.1 0.2 0 0.3 0z"/>
							</g>
							<g id="&lt;Group&gt;">
								<path id="&lt;Path&gt;" class="s0" d="m381.4 157.8c0.7 0.4 1.4 0.9 1.9 1.5 0.6 0.6 1.1 1.4 1.5 2.1 0.4 0.7 0.8 1.4 1 2 0.2 0.7 0.4 1.2 0.4 1.5q0 0.6-0.1 1.1-0.1 0.6-0.3 1-0.2 0.5-0.5 0.8-0.2 0.3-0.5 0.3-0.1 0-0.2 0 0 0-0.1 0-0.1-0.1-0.2-0.1 0-0.1-0.1-0.1c-0.2-0.2-0.4-0.5-0.6-1-0.2-0.4-0.4-1-0.6-1.5-0.2-0.5-0.3-1-0.5-1.4-0.1-0.4-0.1-0.6-0.1-0.6q-0.1-0.2-0.1-0.4-0.1-0.2-0.1-0.4 0-0.3-0.1-0.7 0-0.4-0.1-1.1 0-0.1 0-0.2 0-0.1-0.1-0.4 0-0.2-0.1-0.8-0.1-0.6-0.4-1.6z"/>
							</g>
							<g id="&lt;Group&gt;">
								<path id="&lt;Path&gt;" class="s0" d="m428.8 153.4l0.1 0.1c0 0.1 0.1 0.5 0.2 1.1 0 0.5 0.1 1.2 0.1 1.9 0.1 0.7 0.2 1.5 0.2 2 0.1 0.6 0.1 1 0.1 1.2l0.2 3.2v-0.1q0 0.1 0 0.2 0 0.2 0 0.3 0 0.2 0 0.3 0 0.2 0 0.3c-0.1-1.2-0.1-2.1-0.2-2.8 0-0.8-0.1-1.3-0.1-1.7 0-0.4-0.1-0.7-0.2-1.1 0-0.3-0.1-0.6-0.2-1.1 0-0.1 0-0.3 0-0.7-0.1-0.4-0.1-0.8-0.1-1.3 0-0.4 0-0.8 0-1.2-0.1-0.3-0.1-0.5-0.1-0.5z"/>
							</g>
							<g id="&lt;Group&gt;">
								<path id="&lt;Path&gt;" class="s0" d="m427 152q0 0.1 0 0.3 0 0.1 0 0.3 0 0.2 0.1 0.3 0 0.2 0 0.3 0.1 1.1 0.1 1.7 0 0.6 0 1 0 0.4 0 0.6 0 0.2 0 0.3-0.1 0.3-0.2 0.5-0.1 0.3-0.3 0.5-0.2 0.2-0.3 0.4-0.2 0.3-0.3 0.5 0 0.1 0 0.4-0.1 0.4-0.1 1.1 0 0.7 0.1 1.5 0.1 0.9 0.5 1.9 0.1-0.5 0.2-1 0.1-0.5 0.2-0.9 0.1-0.5 0.1-0.9 0.1-0.5 0.2-1.1 0 0.1 0 0.1 0 0.1 0 0.2 0 0 0 0.1 0 0 0 0.1 0 0 0 0.1 0 0 0.1 0.1 0 0 0 0.1 0 0 0 0.1 0 0.1 0 0.1 0 0 0 0.1 0 0 0 0.1 0 0 0 0.1 0 0 0 0.1 0 0 0 0.1 0 0 0 0.1 0.1 0 0.1 0.1v0.3 0.4l0.1 0.4q0 0 0 0.1 0 0 0 0.1 0 0 0 0 0 0.1 0 0.1-0.3 0.3-0.4 0.8-0.1 0.6-0.1 1.2 0.1 0.7 0.1 1.2 0.1 0.6 0.2 1 0.4 2.4 0.5 3.9 0.2 1.6 0.1 2.5 0 0.9 0 1.2-0.1 0.4-0.1 0.4c0-0.1 0-0.1 0-0.2 0-0.1-0.1-0.3-0.1-0.7-0.1-0.4-0.2-1-0.3-2-0.1-0.9-0.3-2.1-0.5-3.7q0 0.3 0 0.5 0 0.3 0 0.5 0 0.3 0 0.7 0 0.4 0 1.1c0 1.4 0.1 2.4 0.1 3.2 0 0.8 0 1.3 0 1.7 0 0.4 0 0.6-0.1 0.7 0 0.2-0.1 0.2-0.1 0.3 0 0-0.2-1.2-0.3-3.1-0.2-1.9-0.4-4.4-0.5-6.9-0.2-2.5-0.3-5.1-0.3-7.1-0.1-2 0-3.4 0.2-3.7q0 0 0.1 0 0 0 0 0 0 0 0 0 0 0 0 0 0.3 0 0.5-0.3 0.1-0.2 0.2-0.8 0.1-0.5 0.1-1.3 0.1-0.8 0.1-1.9z"/>
							</g>
							<g id="&lt;Group&gt;">
								<path id="&lt;Path&gt;" class="s0" d="m420.7 142.4q0.5 0.8 0.9 1.4 0.4 0.6 0.7 1.1 0.2 0.4 0.4 0.6 0.1 0.2 0.1 0.2 0.2 1 0.3 1.9 0.1 0.9 0.2 1.9 0 0.9 0.1 1.8 0 1 0.2 1.9 0.1 0.4 0.1 0.8 0.1 0.3 0.2 0.6 0.1 0.3 0.1 0.6 0.1 0.2 0.1 0.4 0.1 0.3 0.3 0.7 0.2 0.3 0.3 0.7 0.2 0.3 0.3 0.7 0 0.3 0 0.7c-0.1 0.5-0.2 1.4-0.2 2.4-0.1 1.1-0.1 2.3-0.1 3.4 0.1 1.2 0.1 2.4 0.1 3.3 0.1 0.9 0.1 1.6 0.2 1.8 0.1 1.3 0.2 2.3 0.2 3.1 0 0.7-0.1 1.3-0.1 1.7-0.1 0.4-0.2 0.6-0.3 0.8-0.1 0.2-0.2 0.3-0.3 0.3q-0.2 0-0.3-0.2-0.1-0.1-0.2-0.3 0-0.1-0.1-0.3-0.1-0.1-0.3-0.2-0.2 0.1-0.3 0.3-0.1 0.1-0.2 0.3 0 0.1-0.2 0.3-0.1 0.1-0.3 0.2 0 0 0 0-0.1 0-0.1 0.1 0 0-0.1 0 0 0 0 0-0.1 0-0.2 0 0 0-0.1-0.1 0 0-0.1 0-0.1 0-0.1 0-0.1 0-0.2-0.1-0.1 0-0.1 0-0.1 0-0.2 0 0 0-0.1 0-0.2-1.7-0.6-3.4-0.3-1.6-0.7-3.3-0.3-1.7-0.5-3.3-0.3-1.7-0.3-3.4 0.1 0 0.3 0 0.1 0 0.3 0 0.1 0 0.3 0 0.1 0 0.3 0c0-1.1 0-2 0-2.6 0-0.6 0-1.1 0-1.4 0-0.3 0.1-0.4 0.1-0.5 0-0.1 0-0.2 0-0.2q0.1-0.2 0.2-0.3 0.1-0.2 0.1-0.4 0.1-0.2 0.1-0.6 0-0.4 0.1-0.9c0-2.2 0-3.8 0-5.1 0-1.3 0-2.2 0-3 0-0.7 0-1.4-0.1-2.1-0.1-0.6-0.1-1.4-0.2-2.3z"/>
							</g>
							<g id="&lt;Group&gt;">
								<path id="&lt;Path&gt;" class="s0" d="m421.9 129.6c0.2 0.2 0.4 0.7 0.7 1.3 0.2 0.6 0.4 1.3 0.6 1.9 0.2 0.7 0.4 1.3 0.5 1.7 0.2 0.5 0.3 0.8 0.3 0.8q0 0.3 0.1 0.5 0 0.3 0.1 0.6 0.1 0.2 0.1 0.5 0.1 0.2 0.1 0.5 0-0.1-0.1-0.1 0-0.1-0.1-0.2-0.1-0.1-0.1-0.1-0.1-0.1-0.1-0.2 0.1 0.5 0.2 0.9 0.1 0.5 0.2 0.9 0.1 0.4 0.2 0.8 0.2 0.4 0.3 0.9 0 0-0.1 0 0 0 0 0 0 0 0 0 0 0 0 0-0.2 0-0.3-0.1-0.2-0.1-0.4-0.5-0.1-0.5-0.4-1.3-0.2-0.9-0.7-2.5 0 0.3 0 0.6-0.1 0.3-0.1 0.6 0 0.3-0.1 0.6 0 0.2 0 0.5-0.1-0.2-0.2-0.6-0.1-0.4-0.2-0.9-0.1-0.5-0.1-1-0.1-0.5-0.1-1 0-0.1 0-0.3 0-0.1 0.1-0.3 0.1-0.1 0.1-0.3 0.1-0.1 0.1-0.3 0-0.2 0-0.4 0-0.2-0.1-0.6-0.1-0.4-0.2-1.1-0.1-0.7-0.3-1.8z"/>
							</g>
							<g id="&lt;Group&gt;">
								<path id="&lt;Path&gt;" class="s0" d="m419.2 126.4q0.5 0.4 0.8 0.7 0.3 0.2 0.4 0.4 0.1 0.1 0.2 0.2 0 0.1 0 0.3c0.1 0.4 0.2 0.8 0.2 1.1 0.1 0.3 0.1 0.6 0.2 0.9 0.1 0.3 0.1 0.6 0.2 1 0.1 0.4 0.3 0.9 0.5 1.6q-0.1 0-0.1 0-0.1 0-0.1 0 0-0.1-0.1-0.1-0.1-0.1-0.1-0.3-0.2-0.3-0.3-0.6-0.1-0.3-0.1-0.6-0.1-0.4-0.2-0.7-0.1-0.3-0.2-0.6-0.1-0.2-0.2-0.3-0.1-0.2-0.2-0.4-0.1-0.1-0.2-0.3-0.1-0.2-0.2-0.4-0.1-0.2-0.2-0.4 0-0.3-0.1-0.6-0.1-0.3-0.1-0.5-0.1-0.3-0.1-0.4z"/>
							</g>
							<g id="&lt;Group&gt;">
								<path id="&lt;Path&gt;" class="s0" d="m63.3 147q0.3 0 0.5 0 0.2 0 0.5 0 0.2 0.1 0.4 0.1 0.2 0 0.4 0.1 0.8 0.3 1.4 0.7 0.6 0.5 1.1 1.2 0.4 0.7 0.8 1.7 0.3 0.9 0.6 2.3l-0.2-0.1q-0.8-0.2-1.2-0.3-0.4-0.2-0.6-0.2-0.2-0.1-0.3-0.1-0.1 0-0.2 0 0 0-0.1 0 0 0 0 0 0 0 0 0-0.1 0-0.1 0-0.1 0-0.2 0.1-0.1 0-0.4 0.1-0.2 0-0.7 0.2-0.4 0.1-1.2 0.3 0-0.3-0.1-0.5-0.1-0.2-0.2-0.4-0.2-0.1-0.4-0.3-0.3-0.1-0.6-0.2-0.5-0.1-0.8-0.2-0.3-0.1-0.5-0.4-0.2-0.2-0.3-0.5-0.1-0.3-0.2-0.7 0.3 0.2 0.6 0.3 0.2 0.1 0.5 0.3 0.3 0.1 0.7 0.3 0.3 0.2 0.7 0.4c0-0.7 0.1-1.2 0.1-1.6 0-0.4 0-0.7 0-0.9 0-0.3 0-0.5 0-0.8 0-0.3 0-0.5 0-0.9z"/>
							</g>
							<g id="&lt;Group&gt;">
								<path id="&lt;Path&gt;" class="s0" d="m411.5 109.1q0.4 0.7 0.8 1.4 0.4 0.7 0.7 1.4 0.4 0.6 0.6 1.3 0.3 0.6 0.4 1.1 0.2 0.8 0.4 1.4 0.2 0.7 0.4 1.2 0.2 0.5 0.6 1.1 0.3 0.6 0.7 1.4 0-0.1 0.1-0.1 0.1 0 0.1 0 0.1 0 0.1 0 0.1 0 0.1 0 0.3 0 0.5 0.1 0.2 0.1 0.4 0.4 0.2 0.3 0.5 1 0.2 0.6 0.7 1.7l-0.1-0.1q-0.4-0.4-0.6-0.7-0.2-0.2-0.2-0.3-0.1-0.1-0.2-0.1 0 0 0 0-0.1 0-0.1 0 0 0 0 0.1 0 0 0 0 0 0.1-0.1 0.2-0.1-0.1-0.1-0.1-0.1-0.1-0.2-0.2-0.1-0.1-0.1-0.2-0.1 0-0.2-0.1-0.1 0.1-0.1 0.1 0 0.1 0 0.2 0 0-0.1 0.1 0 0 0 0.1c-0.1-0.1-0.3-0.4-0.7-0.9-0.3-0.5-0.6-1.1-1-1.7-0.4-0.6-0.7-1.3-1-1.7-0.3-0.5-0.5-0.8-0.5-0.8q0-0.1 0-0.1 0-0.1 0-0.1 0-0.1 0-0.1 0-0.1 0-0.2-0.1-0.4-0.2-0.8-0.2-0.5-0.4-0.9-0.1-0.4-0.3-0.8-0.1-0.3-0.2-0.5-0.5-1-0.7-1.6-0.3-0.6-0.4-0.9-0.2-0.3-0.3-0.5 0-0.3-0.2-0.6 0.2 0 0.3 0 0.1-0.1 0.2-0.1 0.1 0 0.2 0 0.1-0.1 0.2-0.1z"/>
							</g>
							<g id="&lt;Group&gt;">
								<path id="&lt;Path&gt;" class="s0" d="m55.5 134q0.1 0 0.2 0 0.1 0 0.3 0 0.1 0 0.2 0 0.2 0.1 0.3 0.1 0.1 0 0.2 0.1 0.1 0.1 0.3 0.2 0.1 0 0.2 0.2 0.2 0.1 0.3 0.3 0.3 0.2 0.4 0.5 0.1 0.3 0.3 0.7 0.1 0.3 0.2 0.6 0.2 0.3 0.4 0.5 0.1 0.1 0.2 0.2 0.1 0 0.2 0.1 0.1 0 0.3 0.1 0.1 0 0.2 0.2v0.1q0.1 0.3 0.1 0.5 0.1 0.3 0.1 0.6 0 0.2 0 0.5 0.1 0.3 0.2 0.5 0 0.1 0 0.2 0.1 0.1 0.2 0.4 0.1 0.3 0.4 0.8 0.3 0.6 0.7 1.6 0.3 0.5 0.4 0.8 0.2 0.3 0.2 0.6 0.1 0.3 0.1 0.6 0 0.3 0 0.8l-0.3 0.1q0 0 0 0-0.1 0-0.1 0-0.1 0-0.1 0 0 0-0.1 0-0.4 0-0.9-0.1-0.4-0.1-0.8-0.2-0.4-0.2-0.8-0.4-0.4-0.1-0.9-0.3 0.1-0.1 0.2-0.3 0-0.1 0.1-0.3 0.1-0.1 0.1-0.3 0-0.2 0-0.3v-0.1q-0.1-0.4-0.2-0.8-0.1-0.3-0.2-0.7-0.1-0.4-0.2-0.8-0.1-0.4-0.2-0.8-0.1-0.1-0.1-0.2 0-0.2-0.1-0.4 0-0.1-0.1-0.3 0-0.1-0.1-0.2-0.1-0.3-0.4-0.6-0.2-0.2-0.4-0.5-0.3-0.2-0.5-0.4-0.2-0.3-0.4-0.6-0.1-0.2-0.1-0.4-0.1-0.2-0.1-0.4 0-0.2 0-0.5 0-0.2 0-0.5l-0.1-0.1q0-0.1-0.1-0.1 0-0.1-0.1-0.1-0.1-0.1-0.1-0.1-0.1 0-0.2 0-0.2 0-0.4 0.1-0.2 0-0.5 0.2-0.3 0.1-0.6 0.3-0.4 0.1-0.9 0.4 0.4-0.5 0.8-0.9 0.4-0.4 0.8-0.7 0.4-0.2 0.7-0.4 0.4-0.1 0.8-0.1z"/>
							</g>
							<g id="&lt;Group&gt;">
								<path id="&lt;Path&gt;" class="s0" d="m401.4 92.8q0.2 0.2 0.4 0.5 0.2 0.3 0.5 0.7 0.3 0.3 0.6 0.8 0.2 0.5 0.6 1 0.3 0.6 0.6 1.2 0.3 0.6 0.5 1.1 0.2 0.5 0.4 1 0.2 0.5 0.3 1-0.7-0.8-1.3-1.6-0.6-0.8-1.1-1.7-0.4-0.9-0.8-1.9-0.4-1-0.7-2.1z"/>
							</g>
							<g id="&lt;Group&gt;">
								<path id="&lt;Path&gt;" class="s0" d="m221.8 98.6q0.2 0.1 0.4 0.4 0.1 0.2 0.3 0.5 0.1 0.3 0.2 0.7 0.1 0.4 0.2 1 0 0.3 0 0.5 0 0.3 0 0.6 0 0.3 0 0.6 0 0.2 0 0.5-0.3 0.2-0.5 0.3-0.3 0.1-0.6 0.3-0.2 0.1-0.5 0.2-0.2 0.2-0.5 0.3-0.1-0.1-0.2-0.2 0-0.1-0.1-0.3-0.1-0.2-0.2-0.4 0-0.2-0.1-0.4c0-0.1 0-0.3 0-0.5 0-0.3-0.1-0.7-0.1-1 0-0.4 0-0.7 0-1 0-0.3 0-0.5 0-0.6q0-0.3 0.2-0.5 0.1-0.2 0.3-0.4 0.2-0.1 0.5-0.3 0.3-0.1 0.7-0.3z"/>
							</g>
							<g id="&lt;Group&gt;">
								<path id="&lt;Path&gt;" class="s0" d="m198 65.5q0.3 0 0.5 0.1 0.3 0 0.5 0.2 0.2 0.2 0.5 0.4 0.2 0.2 0.4 0.6 0 0.1 0 0.1 0 0.1-0.1 0.1 0 0.1 0 0.2 0 0 0 0.1-0.2 0.5-0.4 1-0.1 0.5-0.3 1-0.1 0.6-0.3 1.1-0.2 0.5-0.4 1-0.1 0.2-0.2 0.4-0.1 0.2-0.2 0.3-0.1 0.2-0.2 0.3-0.1 0.1-0.3 0.2l-0.3 0.2q-0.1 0.1-0.2 0.1-0.1 0-0.2 0-0.1 0.1-0.2 0.1-0.2 0-0.3 0.1-0.1 0.1-0.3 0.2-0.2 0.1-0.3 0.2-0.2 0.1-0.4 0.2-0.1 0.1-0.3 0.2-0.2 0-0.4 0.1-0.2 0.1-0.3 0.1-0.2 0-0.3 0-0.1 0.1-0.1 0.1 0 0 0 0-0.1 0-0.1 0 0 0 0 0 0 0 0 0-0.3 0-0.6-0.1-0.2-0.1-0.4-0.2-0.2-0.1-0.3-0.3-0.1-0.1-0.2-0.3 0.1-0.1 0.2-0.2 0.1-0.2 0.2-0.3 0.2-0.2 0.3-0.3 0.1-0.2 0.2-0.3 0.1-0.1 0.2-0.2 0.2-0.1 0.3-0.3 0.1-0.1 0.2-0.2 0-0.1 0.1-0.3v-0.4q0-0.3 0-0.6 0-0.4 0-0.7 0-0.3 0-0.7 0-0.3 0-0.6 0.2-0.1 0.4-0.2 0.2-0.1 0.4-0.2 0.2 0 0.4-0.1 0.2-0.1 0.4-0.2 0.2-0.2 0.3-0.3 0.1-0.1 0.2-0.2 0.1-0.1 0.2-0.2 0.1-0.1 0.1-0.2 0.2-0.3 0.4-0.4 0.1-0.2 0.3-0.4 0.2-0.1 0.4-0.2 0.2-0.1 0.5-0.1z"/>
							</g>
							<g id="&lt;Group&gt;">
								<path id="&lt;Path&gt;" class="s0" d="m374.4 50.2q0.3 0.2 1.3 0.8 1 0.6 2.6 1.9 1.5 1.2 3.6 3.1 2 1.9 4.5 4.7 0.1 0.2 0.3 0.3 0.1 0.2 0.3 0.3 0.1 0.2 0.2 0.4 0.2 0.1 0.3 0.3l-0.1-0.1-0.1 0.1q0 0.1 0 0.2 0.1 0 0.1 0.1 0 0.1 0.1 0.2 0.1 0.1 0.2 0.3l2 4.1q-0.3-0.1-0.6-0.3-0.2-0.3-0.4-0.6-0.3-0.2-0.5-0.5-0.2-0.2-0.6-0.3l-0.1 0.1q0.1 0.1 0.1 0.2 0.1 0.1 0.2 0.2 0 0.2 0.1 0.3 0.1 0 0.2 0.1 0.4 0 0.7 0.4 0.4 0.3 0.7 0.8 0.3 0.6 0.6 1.2 0.3 0.6 0.5 1.2-0.5-0.5-0.8-0.7-0.3-0.3-0.5-0.6-0.1-0.2-0.3-0.4-0.1-0.3-0.3-0.6 0-0.1 0-0.2-0.1-0.1-0.1-0.2-0.1-0.1-0.1-0.1-0.1-0.1-0.2-0.1l-0.1 0.1q0 0.2 0.2 0.4 0.1 0.3 0.3 0.5 0.1 0.2 0.2 0.5 0 0.3-0.1 0.6c0.6 0.2 1.2 0.7 1.7 1.2 0.6 0.6 1.1 1.2 1.6 1.8 0.4 0.6 0.8 1.2 1.1 1.6 0.3 0.4 0.4 0.7 0.4 0.7l-0.1 0.1q-0.1 0-0.2-0.1-0.1 0-0.2-0.2-0.2-0.1-0.5-0.4-0.3-0.3-0.8-0.8c-0.7-0.6-1.2-1.1-1.6-1.5-0.4-0.4-0.7-0.8-1.1-1.2-0.3-0.5-0.7-1-1.1-1.7-0.4-0.6-0.9-1.5-1.6-2.7q-0.3-0.5-0.5-0.8-0.2-0.4-0.3-0.6-0.1-0.3-0.1-0.5 0.1-0.2 0.1-0.4c0.1-0.2 0.1-0.3 0.1-0.4-0.1-0.2-0.1-0.3-0.3-0.6-0.2-0.2-0.5-0.6-0.9-1.1-0.4-0.5-1-1.1-1.7-1.9q0.1 0 0.1 0 0.1 0 0.1 0 0 0 0.1 0 0 0 0 0 0 0 0.1 0 0 0 0 0 0 0 0 0 0.1 0 0.1 0-0.1-0.2-0.4-0.6-0.2-0.4-0.7-1-0.4-0.6-1-1.2-0.6-0.7-1.2-1.3-0.7-0.7-1.4-1.3-0.7-0.6-1.4-1.3-0.7-0.6-1.5-1.2-0.7-0.6-1.3-1.3z"/>
							</g>
							<g id="&lt;Group&gt;">
								<path id="&lt;Path&gt;" class="s0" d="m203.1 58.3q0.1 0 0.2 0.1 0.1 0 0.2 0 0.1 0 0.2 0.1 0.1 0 0.2 0.1 0 0.2-0.1 0.3 0 0.2-0.1 0.4 0 0.1-0.1 0.3-0.1 0.2-0.1 0.3 0.2 0.1 0.5 0.1 0.2 0.1 0.5 0.1 0.2 0.1 0.5 0.1 0.2 0.1 0.5 0.2-0.2 0.3-0.3 0.6-0.2 0.3-0.4 0.6-0.1 0.4-0.3 0.7-0.1 0.3-0.3 0.6 0 0.1 0.1 0.2 0 0.1 0.1 0.3 0 0.1 0.1 0.2 0 0.1 0 0.2 0.3 0.5 0.6 1 0.3 0.5 0.5 1 0.3 0.5 0.6 1 0.3 0.5 0.6 1 0.1 0.2 0.2 0.5 0 0.3 0.1 0.5 0.1 0.3 0.2 0.6 0.1 0.2 0.2 0.5 0.1 0 0.1 0.1 0.1 0 0.2 0.2 0.2 0.1 0.5 0.3 0.3 0.3 0.9 0.8l-0.1 0.4c-0.3 0.9-0.5 1.5-0.6 2-0.2 0.5-0.3 0.9-0.4 1.1-0.1 0.2-0.2 0.4-0.3 0.5 0 0-0.1 0.1-0.2 0.2q-0.2 0-0.3 0.1-0.2 0.1-0.3 0.1-0.1 0-0.3 0.1-0.2 0-0.4 0.1-0.1 0-0.1 0-0.1 0-0.1 0-0.1 0-0.1 0-0.1 0-0.2 0-0.1 0-0.2 0-0.2 0-0.3 0-0.1 0-0.3 0-0.1 0-0.3 0-0.1 0-0.2 0-0.2 0-0.3 0-0.2 0-0.3 0-0.2 0-0.3 0-0.1 0-0.2 0-0.1 0.1-0.3 0.1-0.1 0-0.2 0-0.1 0-0.2 0.1-0.8 0.2-1.3 0.4-0.6 0.2-0.9 0.3-0.4 0.1-0.6 0.2-0.2 0-0.4 0 0 0-0.1 0 0 0-0.1 0-0.1 0-0.1 0-0.1 0-0.2 0 0.3-0.4 0.6-0.7 0.3-0.4 0.6-0.8 0.3-0.3 0.6-0.7 0.3-0.4 0.6-0.7-0.2-0.1-0.5-0.2-0.3-0.1-0.6-0.1-0.3-0.1-0.5-0.2-0.3-0.1-0.6-0.1 0.7-0.5 1.2-0.9 0.5-0.3 0.7-0.6 0.2-0.3 0.2-0.8 0-0.4-0.2-1 0.1-0.1 0.3-0.2 0.2-0.1 0.4-0.2 0.1 0 0.3-0.1 0.2-0.1 0.3-0.2 0.2-0.1 0.2-0.2 0.1-0.2 0.2-0.3 0-0.1 0.1-0.3 0-0.1 0-0.3 0-0.6-0.2-0.9-0.1-0.4-0.3-0.6-0.3-0.1-0.6-0.2-0.4-0.1-0.9-0.2 0.1-0.2 0.1-0.4 0-0.3 0.1-0.5 0-0.2 0-0.5 0.1-0.2 0.1-0.4-0.1 0-0.3 0.1-0.1 0.1-0.2 0.1-0.2 0.1-0.3 0.2-0.1 0-0.3 0.1c-0.3-1.1-0.3-2.1-0.2-2.9 0.1-0.9 0.4-1.6 0.7-2.1 0.4-0.6 0.8-1 1.2-1.3 0.5-0.3 0.9-0.5 1.3-0.6z"/>
							</g>
							<g id="&lt;Group&gt;">
								<path id="&lt;Path&gt;" class="s0" d="m364.9 43q0.4 0.1 0.7 0.3 0.3 0.1 0.7 0.2 0.3 0.1 0.6 0.3 0.4 0.1 0.7 0.2 0.2 0.1 0.3 0.1 0.1 0.1 0.1 0.1 0.1 0 0.2 0 0.1 0.1 0.1 0 0 0 0.1 0 0 0 0 0 0 0 0.1 0 0 0 0 0 0.1 0 0.1 0 0 0 0 0 0 0 0.1 0 0 0 0 0 0.1 0 0.1 0 0 0 0.1 0 0 0 0 0 0.1 0 0.1 0 0.4 0.1 0.6 0.3 0.3 0.2 0.5 0.3 0.1 0.2 0.3 0.3 0.1 0.1 0.2 0.2 0.4 0.5 0.7 0.9 0.3 0.4 0.6 0.7 0.3 0.3 0.5 0.6 0.2 0.3 0.4 0.5-0.1-0.1-0.3-0.1-0.1 0-0.3-0.1-0.1 0-0.3-0.1-0.1 0-0.3-0.1 0.1 0.2 0.2 0.4 0 0.2 0.1 0.3 0.1 0.2 0.1 0.4 0.1 0.1 0.2 0.4-0.2-0.2-0.5-0.4-0.2-0.2-0.3-0.4-0.2-0.1-0.4-0.4-0.2-0.2-0.5-0.5c-0.3-0.3-0.5-0.5-0.7-0.7-0.2-0.3-0.4-0.5-0.8-0.8-0.3-0.2-0.8-0.6-1.5-1-0.6-0.5-1.5-1.1-2.6-1.9z"/>
							</g>
							<g id="&lt;Group&gt;">
								<path id="&lt;Path&gt;" class="s0" d="m188.8 43.3q0 0 0 0 0 0 0.1 0 0 0 0 0 0 0 0 0 0.2 0 0.3 0.1 0.2 0.1 0.2 0.2 0.1 0.1 0.2 0.3 0 0.2 0 0.5 1.3-0.3 2.2-0.5 0.9-0.2 1.5-0.3 0.6-0.2 0.9-0.2 0.3-0.1 0.5-0.1 0 0 0.1 0 0 0 0.1 0 0 0 0 0 0.1 0 0.1 0 0.2 0 0.3 0.2 0.1 0.1 0.3 0.3 0.1 0.2 0.3 0.6 0.2 0.4 0.4 1l-0.3 0.3q-0.2 0.3-0.4 0.5-0.2 0.1-0.4 0.3-0.2 0.2-0.4 0.3-0.2 0.1-0.3 0.2c-0.2 0.1-0.6 0.2-0.9 0.4-0.4 0.2-0.9 0.3-1.3 0.5-0.4 0.2-0.8 0.3-1.1 0.5-0.3 0.1-0.5 0.1-0.6 0.2q0 0-0.1 0 0 0-0.1 0 0 0-0.1 0-0.1 0-0.1 0-0.5 0-0.9 0-0.4-0.1-0.9-0.3-0.4-0.1-0.8-0.2-0.5-0.1-0.9-0.1 0.1-0.1 0.2-0.3 0.1-0.1 0.2-0.3 0.1-0.1 0.2-0.3 0.1-0.1 0.2-0.2-0.2-0.1-0.3-0.2-0.1-0.1-0.2-0.2-0.1 0-0.2-0.1-0.1-0.1-0.3-0.2 0.3-0.1 0.5-0.2 0.3-0.2 0.5-0.3 0.3-0.1 0.5-0.3 0.3-0.1 0.5-0.3-0.2 0-0.4-0.1-0.3 0-0.5-0.1-0.2-0.1-0.4-0.1-0.3-0.1-0.5-0.1 0.6-0.5 1-0.8 0.3-0.2 0.5-0.4 0.2-0.1 0.3-0.1 0.2-0.1 0.3-0.1z"/>
							</g>
							<g id="&lt;Group&gt;">
								<path id="&lt;Path&gt;" class="s0" d="m252.3 21q0.1 0 0.2 0.1 0.1 0.1 0.1 0.2 0.1 0 0.2 0.1 0.1 0.1 0.1 0.1l-0.1 0.1-0.3 0.3q-0.2 0.3-0.5 0.5-0.3 0.2-0.6 0.4-0.2 0.2-0.5 0.5-0.2 0.2-0.4 0.5-0.1 0.3-0.1 0.7-0.1 0.4-0.1 0.8 0.1 0.4 0.1 0.7 0 0.3 0 0.3 0.2 0.9 0.5 1.5 0.3 0.5 0.7 0.9 0.5 0.4 1.1 0.7 0.7 0.3 1.6 0.6-0.1 0.1-0.2 0.3-0.1 0.1-0.3 0.2-0.1 0.1-0.2 0.1-0.2 0.1-0.4 0.1-0.3 0-0.7-0.1-0.4 0-0.9-0.2-0.6-0.1-1.2-0.4-0.7-0.2-1.6-0.6-0.1-0.5-0.3-1-0.1-0.5-0.2-1-0.2-0.6-0.3-1.1-0.2-0.5-0.3-1 0-0.2 0-0.4-0.1-0.2-0.1-0.4 0-0.2 0.1-0.4 0-0.1 0-0.2 0.1-0.2 0.1-0.4 0.1-0.1 0.2-0.3 0-0.1 0.2-0.2 0.1-0.1 0.3-0.2 0.2-0.2 0.6-0.3 0.3-0.1 0.6-0.2 0.4-0.1 0.7-0.2 0.3-0.2 0.5-0.5 0.1-0.2 0.1-0.3 0.1-0.1 0.1-0.1 0.1-0.1 0.1-0.1 0.1 0 0.1 0 0.1 0 0.1 0 0.1 0 0.2 0 0-0.1 0.1-0.1 0 0 0.1 0 0.1 0 0.1 0 0.1 0 0.2 0 0 0 0.1 0 0.1 0 0.1 0z"/>
							</g>
							<g id="&lt;Group&gt;">
								<path id="&lt;Path&gt;" class="s0" d="m150.1 26.5q0 0 0.1 0 0.1 0 0.2 0 0.1 0 0.2 0 0 0 0.1 0 0.1 0.1 0.2 0.1 0.1 0 0.2 0 0.1 0.1 0.2 0.1 0.1 0 0.2 0.1l-0.4 0.3q-0.1 0.1-0.2 0.1-0.1 0.1-0.2 0.1-0.1 0.1-0.2 0.1-0.1 0-0.2 0.1-0.1 0-0.1 0-0.1 0-0.2 0 0 0.1-0.1 0.1-0.1 0-0.1 0.1-0.2 0.1-0.3 0.2-0.1 0.1-0.2 0.2-0.1 0.1-0.2 0.3-0.2 0.1-0.3 0.2-0.2 0.1-0.3 0.2-0.2 0.1-0.4 0.2-0.2 0.1-0.4 0.2-0.1 0.1-0.3 0.3l-0.2 0.2h-0.1 0.1q-0.2 0-0.3 0-0.1-0.1-0.1-0.1-0.1 0-0.2 0 0 0-0.1 0 0 0-0.1 0 0 0 0 0.1-0.1 0-0.1 0-0.1 0-0.2 0 0 0-0.1 0.1 0 0-0.1 0-0.1 0-0.2 0 0 0-0.1 0-0.1 0-0.1 0-0.1 0-0.1 0-0.1 0-0.1 0-0.1 0-0.1-0.1-0.1-0.1 0-0.4 0.1-0.3 0.3-0.6 0.2-0.3 0.4-0.6 0.3-0.3 0.4-0.4 0 0 0.1-0.1 0.1 0 0.2-0.1 0.1 0 0.2 0 0.1-0.1 0.2-0.1 0 0 0 0 0 0 0 0 0 0 0.1 0 0 0 0 0 0 0.1 0 0.2 0 0.1 0 0.1 0 0.1 0.1 0.1 0 0.1 0.1 0.1 0.1 0 0.2-0.1 0.2 0 0.3-0.1 0.2-0.1 0.4-0.3 0.2-0.1 0.5-0.3 0.2-0.1 0.4-0.2 0.1-0.1 0.3-0.2 0.2-0.1 0.3-0.2 0.2 0 0.4 0z"/>
							</g>
							<g id="&lt;Group&gt;">
								<path id="&lt;Path&gt;" class="s0" d="m221.8 20.9q0 0 0.4 0 0.4 0 1 0 0.6 0 1.2 0 0.6 0 1.1 0.1l-0.2 0.3q-0.1 0.2-0.2 0.4-0.2 0.2-0.3 0.3-0.2 0.1-0.3 0.1-0.2 0-0.3 0.1 0 0 0 0-0.1 0-0.1 0 0 0-0.1 0 0 0-0.1 0-0.1 0-0.1 0-0.1 0-0.1 0-0.1 0-0.1 0-0.1 0-0.2 0-0.2 0-0.5-0.1-0.2 0-0.4 0-0.3-0.1-0.5-0.1-0.2 0-0.4-0.1 0 0.1 0 0.2 0.1 0.1 0.1 0.2 0.1 0 0.1 0.1 0.1 0 0.1 0.1h0.2q0 0.1 0.1 0.1 0.1 0 0.1 0 0.1 0 0.2 0 0 0 0.1 0 0.1 0.1 0.3 0.1 0.1 0.1 0.2 0.2 0.1 0 0.2 0.1 0.1 0.1 0.2 0.1 0.2 0.1 0.4 0.2 0.1 0.1 0.3 0.1 0.1 0.1 0.4 0.2 0.2 0.1 0.6 0.3-0.2 0.1-0.3 0.2-0.1 0.1-0.2 0.1-0.1 0.1-0.2 0.1-0.1 0.1-0.2 0.1-0.1 0-0.3-0.1-0.2 0-0.4-0.2-0.2-0.1-0.4-0.4-0.2-0.2-0.5-0.5-0.2 0.1-0.3 0.2-0.2 0.1-0.3 0.4-0.1 0.2-0.4 0.7-0.2 0.5-0.5 1.4-0.5-0.2-0.7-0.4-0.3-0.1-0.5-0.2-0.1-0.1-0.2-0.2-0.1 0-0.2-0.1-0.1-0.2-0.2-0.3-0.2-0.1-0.3-0.2-0.1-0.2-0.2-0.3-0.1-0.1-0.3-0.2-0.1-0.1-0.2-0.2-0.2-0.1-0.3-0.1-0.1-0.1-0.3-0.2-0.1-0.1-0.2-0.2-0.1-0.1-0.1-0.2-0.1-0.1-0.1-0.3-0.1-0.1-0.1-0.3-0.1-0.1-0.1-0.3 0.2 0 0.4 0 0.2-0.1 0.3-0.1 0.2 0 0.4-0.1 0.2 0 0.4 0 0 0 0 0 0 0 0 0 0 0 0 0 0.1 0 0.1 0 0.1 0 0.2 0 0.1 0 0.1 0.1 0.1 0 0.2 0 0.1 0.1 0.2 0.1 0 0 0 0 0 0 0.1 0 0 0 0 0 0 0 0 0 0.1 0 0.1-0.1 0.1 0 0.2-0.1 0 0 0.1-0.1 0 0 0-0.1 0.1-0.2 0.4-0.4 0.2-0.1 0.5-0.2 0.3-0.1 0.6-0.2 0.2 0 0.3-0.1z"/>
							</g>
							<g id="&lt;Group&gt;">
								<path id="&lt;Path&gt;" class="s0" d="m154.9 23.2q0 0 0.1 0 0.1 0 0.1 0 0.1 0 0.1 0 0.1 0.1 0.1 0.1 0 0 0.1 0.1 0 0 0.1 0.1 0 0 0.1 0 0 0 0.1 0 0 0 0 0 0 0 0 0 0 0 0 0 0.1 0 0.1 0 0 0 0.1 0 0 0 0.1 0 0 0 0.1 0 0 0 0.1-0.1 0 0 0.1 0 0 0 0.1 0 0 0 0.1 0 0 0 0.1 0 0 0 0.1 0 0 0 0 0 0.1 0 0.1 0 0 0 0.1 0 0 0 0.1 0 0.1 0.1 0.1 0.1 0.1 0 0.2 0.1 0 0.1 0.1 0.2l-0.3 0.2q-0.7 0.4-1 0.6-0.3 0.2-0.5 0.3-0.2 0.1-0.3 0.2-0.1 0-0.2 0l-0.4 0.1q-0.1 0-0.3 0.1-0.1 0-0.2 0-0.2 0.1-0.3 0.1-0.1 0-0.2 0-0.1 0-0.1 0 0 0 0 0 0 0 0 0 0 0 0 0-0.1 0-0.1 0 0 0-0.1 0 0 0-0.1-0.1 0 0 0-0.1 0-0.1 0.1-0.1 0-0.1 0.1-0.2 0-0.1 0-0.1 0.1-0.1 0.1-0.2 0-0.1 0-0.1 0-0.1 0-0.1 0-0.1 0-0.1 0-0.1 0-0.1 0-0.2 0-0.3 0 0 0-0.1 0.1 0 0.1 0 0 0 0 0 0.1-0.2 0.3-0.3 0.1-0.1 0.3-0.2 0.1 0 0.3-0.1 0.1 0 0.3 0z"/>
							</g>
							<g id="&lt;Group&gt;">
								<path id="&lt;Path&gt;" class="s0" d="m263.1 14.6q1.1 0 1.7 0.1 0.6 0 0.8 0 0.3 0 0.4 0 0 0 0 0.1l0.3 0.2q-0.1 0.1-0.3 0.2-0.2 0.2-0.3 0.3-0.2 0.2-0.4 0.3-0.2 0.1-0.4 0.3-0.2-0.3-0.4-0.4-0.3-0.2-0.5-0.4-0.2-0.2-0.4-0.4-0.2-0.1-0.5-0.3z"/>
							</g>
							<g id="&lt;Group&gt;">
								<path id="&lt;Path&gt;" class="s0" d="m257.3 13.9q0.1 0 0.2 0 0.1 0 0.2 0 0.1 0 0.2 0 0.1 0 0.3 0.1 0.2 0 0.5 0.1 0.2 0.1 0.5 0.1 0.3 0.1 0.5 0.2 0.3 0.1 0.6 0.1 0 0 0.1 0 0.1 0 0.1 0 0.1 0 0.2 0 0.1 0.1 0.2 0 0 0 0 0 0.1 0 0.1 0 0 0 0.1 0 0 0 0 0h0.1q0.3 0.1 0.6 0.2 0.3 0.1 0.6 0.2 0.3 0.2 0.6 0.3 0.3 0.1 0.6 0.2l-0.2 0.1q-0.3 0-0.5 0-0.3 0.1-0.5 0.1-0.2 0-0.5 0-0.2 0.1-0.4 0.1-0.5 0-0.9 0-0.4 0-0.9 0-0.5-0.1-1-0.1-0.5-0.1-1.1-0.2 0 0-0.2-0.2-0.2-0.1-0.4-0.3-0.2-0.2-0.3-0.4-0.1-0.3 0-0.4l0.2-0.2q0.1 0 0.1 0 0.1 0 0.1 0 0.1 0 0.1 0 0.1 0 0.1 0z"/>
							</g>
							<g id="&lt;Group&gt;">
								<path id="&lt;Path&gt;" class="s0" d="m161.2 20.2q0 0 0 0 0 0 0 0 0 0 0 0 0 0 0 0l0.3 0.2q0 0.1 0.1 0.2 0 0.1 0.1 0.2 0 0.1 0.1 0.2 0 0.1 0 0.1l-0.3 0.3q-0.3 0.1-0.5 0.2-0.2 0.1-0.4 0.2-0.2 0.2-0.4 0.3-0.2 0.1-0.5 0.2 0-0.3 0.1-0.5 0-0.3 0-0.4 0-0.2 0-0.3 0-0.1 0-0.1 0 0 0.2-0.1 0.1-0.1 0.3-0.3 0.2-0.2 0.5-0.3 0.2-0.1 0.4-0.1z"/>
							</g>
							<g id="&lt;Group&gt;">
								<path id="&lt;Path&gt;" class="s0" d="m153.2 20.6q-0.1 0-0.1 0.1-0.1 0-0.2 0.1 0 0-0.1 0.1 0 0-0.1 0.1-0.2 0-0.3 0.1-0.2 0.1-0.4 0.2-0.1 0-0.3 0.1-0.2 0.1-0.3 0.1l-0.2 0.1c0 0-0.1 0.1-0.2 0.3-0.1 0.2-0.3 0.4-0.4 0.7-0.2 0.2-0.3 0.4-0.3 0.6-0.1 0.2-0.1 0.3 0 0.3q0.1 0 0.1 0 0.1 0 0.4-0.2 0.4-0.1 1.1-0.4 0.7-0.3 2-0.8l-0.1 0.2q-0.1 0.1-0.3 0.2-0.1 0.1-0.3 0.2-0.1 0.1-0.2 0.2-0.2 0.1-0.3 0.2-0.1 0-0.1 0.1-0.1 0-0.1 0.1-0.1 0-0.1 0.1 0 0 0 0.1 0.1 0.1 0.1 0.1 0 0.1 0 0.2-0.1 0-0.2 0.1-0.1 0-0.3 0.2-0.4 0.1-0.7 0.2-0.3 0.1-0.5 0.2-0.2 0-0.3 0.1-0.1 0-0.2 0 0 0-0.1 0 0 0-0.1 0 0 0-0.1 0 0-0.1-0.1-0.1-0.1 0-0.2-0.1-0.1 0-0.3 0-0.2-0.1-0.5-0.1-0.2 0-0.5 0 0 0-0.1 0 0 0 0 0 0 0-0.1 0 0 0 0 0-0.3 0-0.5 0-0.2 0.1-0.4 0.1-0.2 0.1-0.4 0.1-0.2 0.1-0.4 0.1 0 0 0 0-0.1 0-0.1 0 0 0-0.1 0 0 0 0 0 0 0.1-0.1 0 0 0 0 0 0 0 0 0-0.1 0-0.1 0 0-0.1 0-0.2 0 0 0.1-0.1 0-0.1 0.1-0.2 0.1-0.1 0.2-0.3 0.1 0 0.1-0.1 0 0 0.1-0.1 0 0 0-0.1 0.1 0 0.1-0.1 0-0.1 0-0.2 0-0.1 0-0.2 0-0.1 0-0.2 0-0.1 0-0.2 0.1-0.1 0.1-0.3 0.1-0.2 0.2-0.3 0-0.2 0.1-0.3 0-0.2 0.1-0.4 0.7-0.1 1.5-0.1 0.7-0.1 1.4-0.2 0.7-0.1 1.4-0.2 0.8-0.1 1.6-0.2z"/>
							</g>
							<g id="&lt;Group&gt;">
								<path id="&lt;Path&gt;" class="s0" d="m286.6 10.9q0 0 0.1 0 0.1 0 0.1 0 0.1 0 0.1 0 0 0 0.1 0.1 0.1 0 0.2 0 0.1 0.1 0.2 0.2 0.1 0 0.3 0.1 0.1 0 0.2 0 0 0.1-0.1 0.2 0 0.1 0 0.1-0.1 0.1-0.1 0.2 0 0.1-0.1 0.1 0 0.1 0 0.2 0 0.1 0 0.1-0.1 0.1-0.1 0.2 0 0-0.1 0.1 0 0 0 0.1-0.1 0-0.2 0 0 0-0.1 0-0.1 0.1-0.1 0.1 0 0 0 0 0 0 0 0 0 0-0.1 0 0 0 0 0-0.3 0-0.8-0.1-0.5-0.1-1-0.2-0.5-0.1-0.9-0.2-0.3-0.1-0.3-0.1l-0.4-0.5v-0.1q0.1 0 0.5-0.1 0.4-0.1 0.8-0.2 0.5-0.1 0.9-0.2 0.5 0 0.9-0.1z"/>
							</g>
							<g id="&lt;Group&gt;">
								<path id="&lt;Path&gt;" class="s0" d="m177.6 18.3q0.3 0 0.6 0 0.2-0.1 0.4-0.1 0.2 0 0.3 0 0.1 0 0.1 0c0.7 0 1.4 0.1 2.1 0.2 0.6 0.2 1.3 0.4 1.9 0.7 0.7 0.2 1.4 0.4 2 0.6 0.7 0.2 1.4 0.2 2.1 0.2q0.1 0 0.2 0 0.1 0 0.1 0 0.1 0 0.2-0.1 0.1 0 0.1 0 1.7-0.3 2.8-0.5 1.1-0.2 1.9-0.3 0.8-0.1 1.3-0.2 0.6-0.1 1.1-0.1 0.2 0 0.4 0 0.2 0 0.5 0 0.2-0.1 0.5-0.1 0.2 0 0.5 0 0.6 0.1 1.1 0.2 0.6 0.1 1.1 0.2 0.6 0.1 1.1 0.3 0.6 0.1 1.1 0.2l-0.1 0.1v0.2l-0.1 0.2v0.1l-0.1 0.2v0.1l-0.1 0.2v0.1q0 0 0.1 0 0 0 0 0 0.1 0 0.1 0 0 0 0.1 0 0.1 0 0.3-0.1 0.1 0 0.3 0 0.1-0.1 0.3-0.1 0.1-0.1 0.3-0.1 0.1-0.1 0.3-0.1 0.2-0.1 0.3-0.1 0.2 0 0.3-0.1 0.2 0 0.3 0 0.2 0 0.4 0 0.2 0 0.4 0.1 0.2 0.1 0.4 0.2 0.2 0.1 0.4 0.3-0.1 0.1-0.1 0.1-0.1 0.1-0.2 0.1-0.1 0.1-0.2 0.2-0.1 0-0.2 0.1c-1.4 0.9-2.5 1.6-3.2 2.2-0.8 0.5-1.3 0.9-1.6 1.2-0.3 0.3-0.3 0.6-0.2 0.9 0.1 0.2 0.3 0.5 0.6 0.8q0 0.2-0.1 0.3-0.1 0.1-0.1 0.3-0.1 0.1-0.2 0.3 0 0.1-0.1 0.2 0 0-0.1 0 0-0.1-0.1-0.1 0-0.1-0.1-0.2-0.1-0.2-0.2-0.4-0.1 0-0.1 0 0 0-0.1 0 0 0 0 0 0 0-0.1 0-0.1 0-0.3 0-0.1 0.1-0.2 0.1 0 0.1-0.1 0.1 0 0 0 0l-0.1 0.3q0 0.1 0 0.3 0.1 0.1 0.2 0.3 0.1 0.1 0.2 0.2 0.1 0.2 0 0.4 0 0.1-0.1 0.2-0.2 0.1-0.3 0.2-0.2 0.1-0.3 0.2-0.1 0.1-0.1 0.3 0 0.3-0.1 0.6-0.1 0.2-0.3 0.5-0.3 0.2-0.7 0.5-0.4 0.4-1 0.8-0.2 0.1-0.3 0.2-0.1 0.2-0.3 0.4-0.1 0.1-0.2 0.3-0.2 0.2-0.3 0.4l-0.2 0.3q-0.4 0.6-0.7 1.2-0.4 0.5-0.7 1.1-0.3 0.6-0.8 1.1-0.4 0.5-1 0.9-0.9 0.6-2 1-1 0.4-2.1 0.6-1.1 0.2-2.2 0.5-1.1 0.3-2.2 0.6-0.6 0.3-1.2 0.7-0.5 0.3-1.1 0.7-0.5 0.4-1 0.8-0.5 0.4-1.1 0.7-0.6 0.4-1.3 0.5-0.7 0.2-1.3 0.4-0.7 0.1-1.4 0.3-0.6 0.1-1.2 0.5-0.7 0.3-1.2 0.7-0.5 0.4-0.9 0.8-0.4 0.4-0.6 0.7-0.3 0.2-0.3 0.3 0 0-0.1 0.1 0 0-0.1 0.1 0 0.1-0.1 0.1-0.1 0.1-0.1 0.2l-7.9 7q0 0 0 0-0.1 0.1-0.1 0.1-0.1 0-0.1 0 0 0-0.1 0-0.1 0-0.3-0.1-0.1-0.1-0.1-0.3-0.1-0.1-0.2-0.3 0-0.2-0.1-0.5-0.1-0.2-0.1-0.4-0.1-0.2-0.2-0.4-0.2-0.1-0.3-0.2-0.2-0.1-0.5-0.1c-0.6 0-0.8-0.5-0.8-1.4 0.1-1 0.5-2.2 1.1-3.7 0.6-1.4 1.4-2.9 2.4-4.3 0.9-1.4 2.1-2.7 3.2-3.6q0.6-0.5 1.3-0.9 0.7-0.3 1.4-0.7 0.6-0.3 1.3-0.8 0.6-0.4 1-1-0.4 0.2-0.8 0.4-0.4 0.1-0.7 0.3-0.3 0.1-0.6 0.2-0.2 0-0.4 0-0.1 0.1-0.2 0 0 0-0.1-0.1 0-0.1 0.1-0.3 0-0.1 0.1-0.3 0 0 0.2-0.3 0.3-0.2 0.6-0.5 0.4-0.3 0.9-0.6 0.4-0.2 1-0.3 0.1 0 0.2 0 0.2 0 0.3 0.1 0.1 0 0.3 0.1 0.1 0 0.2 0.1 0.1-0.4 0.1-0.6 0.1-0.2 0-0.3 0-0.2 0-0.2-0.1-0.1-0.2-0.2-0.1 0-0.2 0.1-0.1 0-0.2 0 0 0.1-0.1 0.1-0.1 0-0.2 0.1-0.1-0.1-0.1-0.1 0-0.1 0-0.2-0.1 0-0.1-0.1 0-0.1-0.1-0.1 0.5-0.6 1-1.2 0.5-0.5 1-1 0.6-0.6 1.1-1.1 0.5-0.6 0.9-1.2 0.1-0.1 0.2-0.4 0.2-0.3 0.3-0.6 0.1-0.4 0-0.7 0-0.3-0.3-0.6-0.1-0.1-0.3-0.2-0.2 0-0.4-0.1-0.1 0-0.3 0-0.2 0-0.4 0-0.1 0-0.2 0-0.1 0-0.2 0-0.1 0-0.1 0-0.1 0.1-0.2 0.1-0.1 0-0.2 0-0.2 0-0.3 0.1-0.1 0-0.2 0-0.1 0-0.2 0-0.3 0-0.4 0-0.2-0.1-0.3-0.3-0.1-0.2 0-0.5 0.1-0.4 0.3-0.9 0.1-0.1 0.2-0.1 0.1 0 0.2 0 0 0 0.1 0 0.1 0 0.1 0 0.1-0.1 0.1-0.1 0.1 0 0.2 0 0 0 0.1 0 0.1 0 0.2 0 0.1-0.1 0.1-0.1 0-0.1 0-0.2 0-0.1 0-0.3 0-0.2 0-0.6 0.7-0.2 1.5-0.4 0.8-0.1 1.6-0.3 0.8-0.1 1.6-0.2 0.8-0.2 1.6-0.5-0.1-0.1-0.1-0.2 0-0.1-0.1-0.2 0-0.1 0-0.2-0.1-0.1-0.1-0.2 0.1 0 0.3-0.1 0.1 0 0.2-0.1 0.2 0 0.3-0.1 0.1 0 0.2-0.1c0 0-0.7 0.2-1.8 0.4-1 0.2-2.4 0.6-3.9 1-1.4 0.4-2.9 0.8-4.1 1.3-1.3 0.5-2.3 1-2.7 1.5q-0.9 0.1-1.7 0-0.9 0-1.7-0.1-0.8-0.1-1.7-0.2-0.8-0.1-1.6-0.2-0.1 0.2-0.2 0.3 0 0.1-0.1 0.2 0 0.1 0 0.2-0.1 0.1-0.1 0.2 0.1 0.1 0.3 0.2 0.1 0.1 0.3 0.1 0.1 0.1 0.3 0.1 0.2 0 0.4 0 0 0 0.1 0 0.1 0 0.1-0.1 0.1 0 0.2 0 0.1 0 0.1 0 0.1 0 0.2 0 0 0 0.1 0 0.1 0 0.2-0.1 0 0 0.1 0 0.2 0 0.4 0 0.2 0.1 0.4 0.1 0.1 0.1 0.2 0.2 0.2 0.2 0.2 0.4-0.2 0.2-0.4 0.4-0.3 0.2-0.5 0.3-0.2 0.1-0.4 0.1-0.2 0.1-0.5 0.1-0.3 0-0.7 0-0.5 0-1.1-0.2-0.7-0.1-1.5-0.3-0.9-0.1-2.1-0.4 0.1-0.1 0.2-0.2 0.1-0.2 0.3-0.3 0.2-0.2 0.7-0.5 0.5-0.3 1.4-0.8-0.1-0.1-0.2-0.2-0.1-0.1-0.2-0.2-0.1-0.1-0.2-0.2 0-0.1-0.1-0.2 0.3-0.1 0.5-0.2 0.2-0.1 0.4-0.1 0.2-0.1 0.3-0.1 0.1 0 0.2 0 0.2 0 0.2 0 0.1 0 0.2 0 0 0.1 0.1 0.2 0 0 0.1 0.1 0 0.1 0.1 0.2 0.1 0.1 0.3 0.1 0.1 0.1 0.3 0.1 0.2 0 0.4 0 0.4-0.1 1-0.2 0.6-0.2 1.3-0.4 0.6-0.3 1.3-0.5 0.6-0.3 1.2-0.5-0.1 0-0.2-0.1-0.1 0-0.3 0-0.1 0-0.5 0-0.3 0-0.8 0l-0.2-0.2q0.4-0.9 1-1.6 0.6-0.6 1.4-0.9 0.7-0.4 1.4-0.5 0.7-0.2 1.2-0.2 0.1 0 0.2 0 0.1 0 0.2 0 0.1 0 0.1 0 0.1 0 0.1 0 0 0.1 0 0.3 0 0.1 0 0.2 0 0.2 0 0.3 0 0.1 0 0.3 0.4-0.1 0.6-0.3 0.3-0.2 0.6-0.5 0.2-0.2 0.5-0.4 0.3-0.2 0.7-0.3c0 0 0.3 0 0.7 0 0.4-0.1 0.9-0.1 1.5-0.2 0.6 0 1.2 0 1.8-0.1 0.6 0 1.1-0.1 1.6-0.1z"/>
							</g>
							<g id="&lt;Group&gt;">
								<path id="&lt;Compound Path&gt;" fill-rule="evenodd" class="s0" d="m403 135c0.5 2.9 1.5 5.6 2.8 8.2 1.3 2.6 2.8 5.1 4.3 7.6 1.4 2.5 2.8 5.1 3.7 7.8 0.9 2.7 1.4 5.5 1.2 8.6-3.1-2.6-5.2-5.7-6.8-8.9-1.6-3.3-2.7-6.8-3.8-10.3-1-3.5-2-7-3.3-10.4-1.3-3.4-2.9-6.6-5.3-9.5q-0.1 0.3-0.1 0.7-0.1 0.4-0.2 0.8 0 0.4-0.1 0.8-0.1 0.4-0.2 0.7-0.1 0.1-0.3 0.2-0.2 0.1-0.4 0.1-0.3 0.1-0.4 0.2-0.2 0.1-0.4 0.2c-1.1-2.4-2.4-4.6-3.7-6.4-1.3-1.9-2.7-3.4-3.9-4.7-1.2-1.3-2.3-2.2-3.1-2.9-0.8-0.7-1.3-1-1.3-1-0.1 0.7-0.2 1.2-0.3 1.6-0.1 0.4-0.3 0.7-0.4 0.9-0.2 0.3-0.5 0.5-0.8 0.8-0.4 0.2-0.8 0.5-1.4 0.8-0.3 6.1-0.5 10.7-0.6 14.3-0.2 3.6-0.2 6.1-0.1 8.1 0 2.1 0.2 3.6 0.5 5.1 0.2 1.6 0.6 3.1 1.1 5.1 0.1 0.1 0.2 0.5 0.3 1.1 0.1 0.7 0.1 1.6 0.1 2.6 0 1-0.1 2.1-0.5 3.2-0.3 1.1-0.9 2.1-1.8 2.9-0.4-0.4-1.5-2.1-3.1-4.4-1.5-2.4-3.5-5.5-5.5-8.8-2.1-3.3-4.2-6.9-6-10.1-1.8-3.3-3.3-6.3-4.2-8.6q-0.2 0-0.4-0.1-0.2-0.1-0.4-0.1-0.3-0.1-0.5-0.2-0.2-0.1-0.4-0.1-0.1 0.1-0.2 0.3-0.1 0.2-0.2 0.3 0 0.2-0.1 0.4-0.1 0.2-0.2 0.3-0.5 0.1-1.1 0-0.5 0-1.1-0.3-0.6-0.3-1.4-1-0.7-0.7-1.6-2 0.1-0.1 0.3-0.2 0.1-0.2 0.3-0.3 0.2-0.2 0.3-0.3 0.2-0.2 0.3-0.3c-0.9-0.2-1.6-0.3-2.3-0.5-0.6-0.2-1.2-0.4-1.9-0.7-0.6-0.4-1.4-0.9-2.3-1.6-0.9-0.7-1.9-1.6-3.3-2.8q-1.8 0.9-3.4 1.5-1.6 0.6-2.9 1-1.4 0.4-2.6 0.6-1.2 0.2-2.2 0.3-1.6 0.1-2.8-0.1-1.2-0.2-2-0.6-0.9-0.4-1.5-0.9-0.5-0.5-0.9-1-0.2 0-0.4 0-0.2 0-0.4 0-0.2 0-0.4 0-0.2 0-0.4-0.1-0.4 0.4-0.9 0.7-0.4 0.3-0.8 0.5-0.5 0.2-0.9 0.3-0.4 0.1-0.8 0.2c-1.2 0-2.3-0.3-3.3-0.8-1.1-0.6-2.2-1.4-3.2-2.2-1.1-0.9-2.2-1.7-3.2-2.5-1.1-0.8-2.2-1.4-3.3-1.7q-0.3 0.2-0.6 0.5-0.3 0.3-0.6 0.7-0.3 0.3-0.5 0.6-0.3 0.4-0.4 0.7c0 0 0.4 0.5 1 1.2 0.7 0.7 1.5 1.6 2.5 2.7 1 1 2.1 2 3.2 3 1 0.9 2 1.7 2.9 2.1q0.1-0.2 0.2-0.4 0-0.2 0.1-0.4 0.1-0.2 0.2-0.4 0.1-0.2 0.2-0.4c0.8 1.3 1.4 2.2 1.8 2.8 0.5 0.7 0.8 1.2 1.1 1.5 0.2 0.3 0.4 0.5 0.6 0.6 0.1 0.1 0.3 0.2 0.5 0.2 0.6-0.3 1.2-0.5 1.6-0.7 0.4-0.3 0.7-0.6 1.1-1 0.3-0.5 0.7-1 1.1-1.9 0.5-0.8 1-1.8 1.8-3.3 0.2 0.5 0.4 0.9 0.6 1.3 0.3 0.3 0.6 0.7 1.1 1.1 0.6 0.4 1.3 0.9 2.4 1.6 1.1 0.7 2.5 1.6 4.5 2.8 0.7 0.5 1.2 1.3 1.5 2.5 0.3 1.2 0.4 2.7 0.2 4.4-0.1 1.7-0.5 3.6-1.3 5.6-0.7 2-1.7 4.2-3.1 6.2q-0.8 1.2-1.7 2.4-0.9 1.2-2.1 2.3-1.1 1.2-2.4 2.4-1.3 1.1-2.7 2.3c-2.4 1.9-4.2 3.3-5.7 4.4-1.4 1-2.4 1.8-3.2 2.3-0.8 0.5-1.3 0.8-1.8 0.9-0.5 0.2-0.9 0.3-1.3 0.4-6.8-9.5-11.9-16.6-15.7-22-3.9-5.3-6.5-8.9-8.4-11.4-1.9-2.5-3-3.9-3.9-4.8-0.8-0.9-1.4-1.2-2.2-1.7q-0.3 0.1-0.7 0.3-0.3 0.1-0.7 0.4-0.3 0.2-0.6 0.5-0.2 0.3-0.4 0.6c2.6 3.7 6.1 8.2 10 13.1 3.8 4.8 7.9 9.9 11.7 14.5 3.8 4.7 7.3 8.8 9.8 11.9 2.5 3 4.1 4.8 4.1 4.9 1.5-0.7 2.8-1.3 4-1.9 1.2-0.6 2.3-1.2 3.4-1.7 1.1-0.5 2.1-1.1 3.3-1.7 1.1-0.5 2.2-1.1 3.5-1.8 0.3 1 0.5 1.7 0.7 2.5 0.2 0.7 0.3 1.3 0.3 2 0.1 0.6 0 1.3 0 2-0.1 0.7-0.3 1.5-0.5 2.5-0.9 4.4-2.5 8.5-4.5 12.5-1.9 4-4.2 7.8-6.5 11.7-2.3 3.8-4.6 7.7-6.6 11.6-2 4-3.7 8.1-4.7 12.4-0.6 2.2-0.5 4.4 0 6.5 0.6 2.1 1.4 4.1 2.2 6.1 0.8 2.1 1.6 4.1 2 6.2 0.4 2.2 0.4 4.3-0.3 6.6 0 0-0.6 0.6-1.4 1.5-0.9 0.9-2.2 2.3-3.6 3.8-1.5 1.5-3.2 3.2-4.9 4.9-1.7 1.7-3.5 3.4-5.2 4.9 1.5 4.4 0.7 8.9-1.5 13.2-2.2 4.3-5.8 8.4-9.9 11.9-4.1 3.6-8.7 6.6-12.9 8.8-4.2 2.2-8 3.5-10.5 3.7q-0.2 0-0.3 0-0.2 0-0.3 0-0.2 0-0.3 0-0.2 0-0.3 0l-9.6-16.3c0-0.1-0.6-1.5-1.4-3.7-0.9-2.1-2-5.1-3.1-8.2-1-3-2.1-6.3-2.8-9.1-0.7-2.7-1.1-5.1-1-6.4l1.9-19.5c-0.2-1-0.3-1.7-0.6-2.5-0.2-0.7-0.6-1.5-1.3-2.5-0.6-1.1-1.5-2.4-2.9-4.3-1.4-1.8-3.2-4.2-5.6-7.4-1.1-1.5-1.4-3-1.4-4.6 0-1.6 0.4-3.2 0.8-4.8 0.3-1.6 0.6-3.2 0.5-4.7-0.1-1.6-0.7-3.1-2-4.5q-0.3-0.3-0.7-0.6-0.3-0.2-0.6-0.3-0.3-0.1-0.7-0.1-0.3 0-0.7 0-0.2 0-0.4 0-0.2 0.1-0.5 0.1-0.2 0.1-0.4 0.1-0.3 0.1-0.5 0.1-0.2 0.1-0.5 0.2-0.2 0-0.4 0.1-0.3 0-0.5 0-0.2 0.1-0.5 0.1-0.2 0-0.4 0-0.2 0-0.4 0-0.2-0.1-0.4-0.1-0.3-0.1-0.5-0.2c-0.6-0.3-1-0.9-1.3-1.5-0.3-0.6-0.5-1.3-0.7-1.9-0.2-0.7-0.5-1.3-0.9-1.7-0.5-0.5-1.1-0.8-2.1-0.8l-25.1 5.8q-0.4 0.1-0.7 0.3-0.4 0.2-0.8 0.3-0.4 0.2-0.8 0.3-0.5 0.1-0.8 0.1c-2.3 0-4.8-1.4-7.3-3.6-2.5-2.1-4.9-5-7-7.8-2.2-2.9-4-5.8-5.4-8-1.3-2.1-2.1-3.6-2.1-3.7l1-27.2c0.1-1.7 1.8-5 4.3-9 2.5-4 5.7-8.6 9-13.1 3.3-4.5 6.7-8.8 9.3-12.1 2.6-3.2 4.5-5.4 4.9-5.7q0.8 0.5 1.6 0.8 0.7 0.3 1.5 0.5 0.7 0.2 1.4 0.2 0.7 0.1 1.4 0 1.3 0 2.5-0.4 1.2-0.4 2.4-0.9 1.1-0.6 2.3-1.3 1.1-0.7 2.3-1.4 1.1-0.7 2.3-1.4 1.1-0.7 2.3-1.2 1.1-0.6 2.3-1 1.2-0.3 2.3-0.4 0.8-0.1 1.6 0 0.8 0.1 1.7 0.4 0.8 0.2 1.6 0.7 0.8 0.4 1.7 1.1c-0.7 2-1.3 3.5-1.3 4.8-0.1 1.2 0.4 2.2 1.6 3.2 1.2 1 3.2 2 6.2 3.2 3 1.2 7.1 2.7 12.5 4.6q0.1-0.2 0.3-0.3 0.1-0.2 0.3-0.3 0.1-0.2 0.3-0.3 0.1-0.2 0.3-0.3c-0.1-0.9-0.1-1.8-0.1-2.5 0.1-0.8 0.2-1.4 0.5-2 0.3-0.5 0.8-1 1.6-1.3 0.7-0.3 1.8-0.5 3.1-0.6q1.4-0.1 3.3-0.1 1.9 0.1 4.4 0.4 2.6 0.2 5.8 0.7 3.2 0.4 7.1 1.1c1.5-0.1 2.5-0.9 3-2.1 0.6-1.2 0.8-2.8 0.7-4.5 0-1.7-0.3-3.5-0.8-5.1-0.4-1.6-1-3-1.5-3.9-0.5 0.1-0.9 0.2-1.2 0.3-0.3 0.1-0.6 0.1-0.8 0.3-0.3 0.1-0.6 0.3-0.9 0.6-0.4 0.3-0.8 0.7-1.4 1.1q-0.9-0.2-1.6-0.3-0.7-0.1-1.2-0.2-0.6-0.1-1-0.1-0.3-0.1-0.6 0-0.3 0-0.6 0.1-0.2 0-0.4 0.2-0.2 0.1-0.4 0.3-0.2 0.2-0.5 0.5-0.3-0.1-0.7-0.1-0.4-0.1-0.8-0.2-0.5-0.2-0.8-0.3-0.4-0.1-0.7-0.3-0.2 0.1-0.4 0.2-0.1 0.1-0.3 0.2-0.2 0.1-0.3 0.2-0.2 0.2-0.3 0.3c-0.9-1.2-1.5-2.1-2.1-2.8-0.5-0.8-0.9-1.4-1.3-2.1-0.3-0.6-0.7-1.3-1.1-2.2-0.4-0.8-0.9-1.9-1.5-3.3q-0.2-0.1-0.4-0.2-0.3 0-0.5-0.1-0.3-0.1-0.5-0.1-0.2-0.1-0.4-0.1-0.3 0.2-0.6 0.5-0.3 0.3-0.5 0.6-0.2 0.3-0.4 0.7-0.2 0.3-0.4 0.6-0.1 0.1-0.4 0.1-0.2 0-0.4 0.1-0.2 0-0.4 0.1-0.2 0-0.4 0.1c0.2 0.4 0.4 0.6 0.6 0.9 0.2 0.3 0.4 0.5 0.6 0.7 0.2 0.3 0.4 0.5 0.8 0.9 0.3 0.3 0.8 0.7 1.4 1.3-0.4 0.8-0.6 1.5-0.8 1.9-0.2 0.5-0.4 0.9-0.5 1.2-0.1 0.3-0.2 0.5-0.2 0.8-0.1 0.2-0.1 0.5-0.2 0.9-2.7-0.7-4.6-2.4-6.1-4.5-1.4-2.2-2.5-4.7-3.5-7.2-1.1-2.4-2.2-4.8-3.7-6.4-1.6-1.7-3.6-2.7-6.6-2.5q-0.3 0-0.5 0-0.3 0.1-0.6 0.1-0.3 0-0.5 0.1-0.3 0.1-0.6 0.1c0.2 1.8 0.8 3.2 1.7 4.3 1 1.2 2.1 2.1 3.4 3 1.3 0.8 2.7 1.6 4 2.4 1.3 0.8 2.5 1.7 3.5 2.7q-0.3-0.1-0.7-0.1-0.4-0.1-0.9-0.1-0.4 0-0.8-0.1-0.4 0-0.8 0.1c0.1 0.8 0.1 1.6-0.1 2.4-0.1 0.7-0.4 1.5-0.7 2.3-0.3 0.7-0.6 1.4-0.8 2.2-0.3 0.8-0.5 1.5-0.5 2.3q-0.4-0.1-0.9-0.3-0.5-0.2-1-0.4-0.5-0.2-1-0.4-0.5-0.3-0.9-0.5 0-0.1 0-0.3-0.1-0.2-0.1-0.5 0-0.2 0-0.4 0-0.2 0-0.3c0.8-0.2 1.5-0.3 2-0.4 0.5-0.1 0.8-0.2 1.1-0.3 0.3-0.1 0.6-0.3 0.8-0.4 0.3-0.2 0.6-0.4 0.9-0.7l-13.2-13.6q-1.2 0.2-2.3 0.6-1.1 0.4-2.2 0.9-1.2 0.4-2.3 0.7-1.1 0.4-2.4 0.5c-0.5 1-1.4 2-2.4 2.8-0.9 0.9-2 1.8-2.8 2.7-0.9 0.9-1.6 1.9-2 3-0.3 1.1-0.3 2.3 0.3 3.8-0.5 1-1 1.7-1.4 2.3-0.5 0.7-1 1.1-1.7 1.6-0.8 0.5-1.7 0.9-3.1 1.4-1.3 0.6-3.1 1.2-5.4 2.1q-0.2-0.3-0.3-0.5-0.2-0.3-0.4-0.6-0.1-0.2-0.3-0.5-0.2-0.3-0.3-0.5-0.5-0.1-0.9-0.2-0.5-0.1-1-0.3-0.5-0.2-1-0.4-0.4-0.2-0.7-0.5c-0.2-3-0.4-5.3-0.2-7.1 0.1-1.7 0.5-3 1.4-4 0.8-1 2.2-1.7 4.3-2.5 2-0.8 4.8-1.5 8.5-2.5 0.6-1.5 1-2.7 1.3-3.6 0.2-1 0.2-1.7 0-2.5-0.2-0.8-0.7-1.5-1.4-2.4-0.8-0.9-1.8-2-3.2-3.5q0.6-0.4 1.3-0.7 0.7-0.3 1.4-0.6 0.7-0.3 1.3-0.7 0.6-0.5 1-1.2 0.2 0 0.4 0.1 0.2 0 0.5 0 0.2 0.1 0.4 0.1 0.2 0 0.4 0.1c1.2-0.8 2.2-1.8 3.1-2.8 0.9-1.1 1.8-2.2 2.7-3.2 0.9-1.1 1.8-2.1 3-2.9 1.1-0.8 2.4-1.5 4-1.9-0.2-1.2-0.4-2.1-0.5-2.9-0.1-0.7-0.1-1.3 0-1.9 0.1-0.5 0.3-1 0.6-1.7 0.3-0.6 0.7-1.4 1.3-2.3 0.4 1 0.8 1.7 1.1 2.3 0.3 0.5 0.6 0.7 0.9 0.9 0.2 0.1 0.5 0.1 0.7 0 0.2-0.1 0.4-0.3 0.6-0.5q-0.3-0.6-0.6-1.2-0.3-0.6-0.6-1.3-0.4-0.6-0.7-1.2-0.3-0.6-0.6-1.3-0.2 0-0.4 0-0.2 0-0.4-0.1-0.2 0-0.4 0-0.2-0.1-0.4-0.1-0.3 0.3-0.6 0.5-0.3 0.3-0.6 0.6-0.4 0.2-0.7 0.5-0.3 0.2-0.6 0.4-0.2 0-0.4 0-0.2-0.1-0.4-0.1-0.3-0.1-0.5-0.1-0.2 0-0.4-0.1c-0.8-1.6-1-3-0.8-4.4 0.3-1.3 0.9-2.5 1.7-3.6 0.8-1.2 1.7-2.3 2.6-3.4 0.8-1.2 1.6-2.3 2.1-3.6q0-0.1 0.1-0.3 0.1-0.3 0.1-0.5 0.1-0.2 0.2-0.4 0-0.2 0.1-0.4 0.1-0.3 0.3-0.7 0.2-0.4 0.5-0.8 0.2-0.4 0.4-0.8 0.2-0.3 0.4-0.7-0.4-0.1-0.6-0.2-0.2-0.2-0.2-0.4 0-0.1 0.1-0.3 0-0.2 0.1-0.3 3-0.7 5.4-1.3 2.4-0.5 4.3-0.9 1.9-0.4 3.3-0.7 1.5-0.2 2.6-0.3c1.1-0.1 1.9 0 2.7 0.1 0.7 0.1 1.4 0.4 2 0.7 0.6 0.3 1.2 0.7 1.9 1.3 0.6 0.5 1.3 1.2 2 1.9q0 0.2-0.2 0.4-0.1 0.1-0.2 0.3-0.1 0.2-0.2 0.4-0.1 0.2-0.2 0.3-0.4 0.1-0.9 0.1-0.4 0-1 0-0.6 0-1.5 0-1-0.1-2.4-0.1 0.6 0.4 1.1 0.9 0.5 0.4 1 0.9 0.5 0.5 1 0.9 0.4 0.5 1 1 0.2-0.1 0.4-0.1 0.2 0 0.4-0.1 0.2 0 0.5-0.1 0.2 0 0.4 0-0.2-0.2-0.3-0.3-0.2-0.2-0.4-0.4-0.1-0.1-0.3-0.3-0.2-0.2-0.3-0.3 0.4 0.1 0.9 0.1 0.4 0.1 0.9 0.1 0.5 0 0.9 0.1 0.5 0 0.9 0-0.1-0.1-0.2-0.3-0.2-0.1-0.3-0.3-0.1-0.2-0.3-0.3-0.1-0.2-0.2-0.3 0.2-0.4 0.5-0.8 0.2-0.4 0.5-0.7 0.4-0.4 0.7-0.7 0.4-0.3 0.7-0.5-0.2-0.3-0.4-0.7-0.3-0.3-0.4-0.7-0.2-0.4-0.4-0.8-0.1-0.4-0.2-0.7 0.3 0.1 0.6 0.4 0.4 0.2 0.7 0.5 0.3 0.2 0.6 0.5 0.3 0.3 0.5 0.6 0.5-0.3 1-0.7 0.4-0.5 0.8-0.9 0.4-0.5 0.8-0.9 0.4-0.5 0.9-0.9 1-0.1 1.8-0.3 0.8-0.2 1.6-0.5 0.7-0.3 1.4-0.5 0.7-0.3 1.4-0.4-0.4-0.2-0.8-0.4-0.4-0.2-0.8-0.4-0.4-0.2-0.8-0.5-0.4-0.2-0.8-0.4c0.1 0 0.2 0 0.4 0.1 0.3 0 0.6 0 1.2 0.1 0.7 0 1.6 0.1 2.9 0.2 1.3 0.2 3.1 0.3 5.5 0.6-1.7-1-2.9-1.7-3.8-2.3-0.9-0.5-1.6-1-2-1.4-0.5-0.4-0.7-0.8-0.9-1.3-0.2-0.5-0.4-1-0.5-1.8 1.4 0.5 2.6 1 3.8 1.7 1.2 0.7 2.3 1.5 3.4 2.3 1.1 0.9 2.1 1.7 3.2 2.5 1.1 0.8 2.3 1.6 3.5 2.2-0.3-1-0.9-1.8-1.7-2.5-0.7-0.6-1.6-1.1-2.5-1.6-0.9-0.5-1.8-1-2.7-1.6-0.8-0.5-1.5-1.2-2-2.1q0.2 0.1 0.5 0.1 0.2 0.1 0.4 0.2 0.3 0.1 0.5 0.2 0.2 0.1 0.4 0.2 0-0.2 0.1-0.4 0-0.2 0-0.4 0.1-0.1 0.1-0.3 0.1-0.2 0.1-0.4 0.2 0 0.4-0.1 0.2 0 0.4-0.1 0.2 0 0.4 0 0.2-0.1 0.4-0.1-0.4-0.1-0.7-0.3-0.4-0.2-0.8-0.4-0.3-0.2-0.7-0.5-0.3-0.3-0.5-0.5 0.1-0.2 0.2-0.3 0.2-0.2 0.3-0.4 0.1-0.1 0.2-0.3 0.2-0.2 0.3-0.3-0.2-0.1-0.4-0.2-0.2-0.1-0.4-0.2-0.2-0.1-0.4-0.2-0.1-0.1-0.3-0.1c0.3-0.6 0.6-1.1 0.8-1.4 0.3-0.4 0.4-0.6 0.6-0.9 0.2-0.2 0.4-0.4 0.7-0.6 0.2-0.2 0.5-0.4 1-0.7q-0.1-0.2-0.2-0.4-0.1-0.2-0.2-0.4-0.1-0.2-0.2-0.4-0.1-0.2-0.1-0.4c2 0.1 3.6 0.1 4.8 0.2 1.2 0.1 2.1 0.2 2.8 0.4 0.8 0.2 1.4 0.6 2.1 1.1 0.7 0.5 1.4 1.1 2.4 2q0-0.2 0-0.3 0-0.2 0.1-0.4 0-0.2 0-0.4 0-0.2 0-0.4 0.8-0.1 1.7-0.2 0.8-0.1 1.7-0.2 0.8-0.1 1.6-0.2 0.9-0.2 1.7-0.4-0.1-0.1-0.3-0.3-0.1-0.1-0.2-0.3-0.2-0.1-0.3-0.2-0.2-0.2-0.3-0.3 0.3 0 0.5-0.1 0.3 0 0.5 0 0.2 0 0.4-0.1 0.2 0 0.4 0 0.6 0 1.1 0 0.5 0 1 0.2 0.6 0.1 1.4 0.3 0.7 0.2 1.8 0.6 0.2-0.1 0.4-0.2 0.2-0.1 0.4-0.2 0.2-0.1 0.4-0.2 0.2-0.1 0.4-0.2 0.1-0.1 0.1-0.3 0.1-0.2 0.2-0.4 0-0.2 0.1-0.4 0-0.1 0.1-0.3-0.1-0.2-0.2-0.3-0.2-0.2-0.3-0.4-0.1-0.1-0.2-0.3-0.1-0.2-0.2-0.3c0.4-0.1 0.7-0.2 1.1-0.3 0.4-0.1 0.9-0.2 1.7-0.3 0.8-0.1 1.8-0.2 3.3-0.4 1.5-0.2 3.5-0.5 6.2-0.8q-0.1-0.2-0.1-0.4 0-0.2 0-0.4 0-0.2 0-0.3 0-0.2-0.1-0.4 0.2 0 0.4 0 0.2 0 0.4 0 0.3-0.1 0.5-0.1 0.2 0 0.4 0-0.2-0.1-0.4-0.2-0.2-0.1-0.4-0.2-0.1-0.1-0.3-0.2-0.2-0.1-0.4-0.2 0.7-0.5 1.4-0.8 0.7-0.3 1.3-0.5 0.6-0.2 1.3-0.3 0.6-0.1 1.2-0.2 1 0 2 0.1 1 0.1 2 0.4 1 0.2 1.9 0.6 1 0.3 2 0.7-0.3 0.1-0.6 0.2-0.3 0-0.7 0.1-0.3 0.1-0.6 0.1-0.4 0.1-0.6 0.1c0 0 1.9 1 4.8 2.5 2.9 1.5 6.8 3.6 10.8 5.8 4 2.1 8.2 4.4 11.7 6.5 3.4 2 6.2 3.8 7.4 4.9-2.3-1.1-4.5-2.2-6.7-3.4-2.3-1.3-4.4-2.5-6.6-3.8-2.3-1.2-4.5-2.4-6.8-3.4-2.3-1.1-4.7-2-7.2-2.7 0.7 0.3 1.2 0.5 1.6 0.7 0.4 0.2 0.7 0.3 1 0.5 0.3 0.1 0.5 0.3 0.7 0.5 0.3 0.2 0.6 0.4 0.9 0.8q-0.1 0-0.3 0.1-0.2 0-0.4 0.1-0.2 0-0.4 0.1-0.2 0.1-0.4 0.1c0.9 0.5 1.6 0.9 2.1 1.2 0.5 0.3 0.9 0.6 1.3 0.7 0.3 0.2 0.6 0.3 0.9 0.4 0.3 0.1 0.7 0.2 1.1 0.3q0.1 0.2 0.2 0.3 0 0.2 0.1 0.4 0.1 0.2 0.2 0.4 0.1 0.2 0.2 0.4-0.2-0.1-0.5-0.2-0.2 0-0.5-0.1-0.2 0-0.5-0.1-0.2-0.1-0.4-0.1 0 0.3 0 0.7 0 0.3-0.1 0.7 0 0.4-0.1 0.8-0.1 0.3-0.3 0.6c2.3 1.8 4 3.1 5.3 4.2 1.4 1 2.3 1.6 3.1 2.1 0.8 0.5 1.3 0.8 1.9 1 0.6 0.2 1.3 0.3 2.1 0.5q0.1-0.1 0.3-0.2 0.1-0.1 0.3-0.3 0.2-0.1 0.4-0.2 0.1-0.1 0.3-0.2 0.4 0.2 0.8 0.3 0.4 0.1 0.8 0.2 0.5 0.2 0.9 0.3 0.4 0.1 0.8 0.2-0.2-0.1-0.3-0.3-0.2-0.1-0.3-0.3-0.2-0.1-0.4-0.3-0.1-0.1-0.3-0.3c0.1 0 0.9 0.5 2.3 1.1 1.3 0.7 3.1 1.6 5 2.7 1.9 1 3.9 2.1 5.6 3.2 1.6 1 3 2 3.7 2.8-2-1.3-3.6-2.2-4.8-3-1.2-0.7-2-1.2-2.8-1.6-0.7-0.4-1.3-0.7-1.9-0.9-0.6-0.2-1.2-0.4-2.1-0.7q1.6 0.9 3.5 2.1 1.9 1.2 4.2 2.9 2.3 1.7 4.9 4 2.6 2.4 5.5 5.6 0 0.1-0.1 0.3 0 0.2 0 0.4-0.1 0.2-0.1 0.4-0.1 0.2-0.1 0.3c1.4 1.9 2.6 3.3 3.5 4.5 1 1.1 1.7 1.9 2.4 2.5 0.6 0.7 1.1 1.1 1.4 1.4 0.4 0.3 0.7 0.5 1 0.7 2.2 1.3 3.8 2.5 5 3.5 1.3 0.9 2.1 1.7 2.6 2.4 0.5 0.6 0.7 1.2 0.8 1.7 0.1 0.5 0.1 1 0 1.5-2-2.1-3.8-3.6-5.2-4.8-1.4-1.1-2.5-1.9-3.4-2.4-0.9-0.5-1.6-0.8-2.1-1-0.6-0.1-0.9-0.1-1.2-0.1q0 0.2 0 0.3 0 0.2 0 0.4 0.1 0.2 0.1 0.4 0 0.2 0 0.4-0.3-0.3-0.7-0.6-0.4-0.3-0.9-0.6-0.4-0.3-0.9-0.6-0.4-0.2-0.9-0.4c0.8 1.2 1.4 2.1 1.9 2.9 0.5 0.7 0.9 1.2 1.4 1.7 0.4 0.5 0.9 0.8 1.5 1.2 0.6 0.5 1.3 0.9 2.3 1.5q0-0.2 0.1-0.4 0-0.2 0-0.4 0.1-0.3 0.1-0.5 0-0.2 0.1-0.4c4.4 2.8 8.5 6.8 12.1 11.4 3.5 4.7 6.5 9.9 8.9 15 2.3 5 4 10 4.8 14.2 0.9 4.2 0.9 7.6 0 9.5-0.4-0.5-0.6-1.2-0.7-1.9-0.2-0.6-0.3-1.3-0.5-2-0.2-0.6-0.5-1.2-1-1.7-0.4-0.6-1.1-1-2.1-1.2q-0.1 1.1 0 2.4 0.1 1.4 0.6 2.9 0.5 1.5 1.6 3.1 1 1.6 2.7 3.3c2.1 2 3.6 3.8 4.8 5.6 1.1 1.8 1.8 3.6 2.2 5.4 0.5 1.9 0.6 3.8 0.6 6 0 2.1-0.2 4.5-0.3 7.1-0.4-0.6-0.6-1-0.9-1.5-0.3-0.5-0.7-0.9-1.2-1.6-0.5-0.6-1.2-1.4-2.3-2.6-1-1.1-2.4-2.6-4.2-4.6zm-100.4-35.4q0.5-0.1 0.8-0.2 0.3-0.2 0.6-0.4 0.3-0.2 0.6-0.5 0.2-0.3 0.5-0.7-0.4-0.9-1-1.8-0.5-0.8-1.1-1.6-0.6-0.8-1.4-1.6-0.9-0.8-1.9-1.5-0.5-0.3-0.8-0.5-0.2-0.3-0.4-0.5-0.1-0.3-0.2-0.5-0.1-0.3-0.1-0.5 0.3-0.1 0.6-0.2 0.3-0.1 0.6-0.2 0.3-0.1 0.6-0.2 0.2-0.1 0.5-0.2l0.5-0.1q-0.6-0.4-1.1-0.8-0.5-0.3-1-0.7-0.5-0.3-1.1-0.7-0.5-0.3-1-0.7 0 0.2 0 0.4-0.1 0.2-0.1 0.4 0 0.3 0 0.5-0.1 0.2-0.1 0.4-0.4-0.7-0.8-1.2-0.4-0.5-0.9-0.8-0.4-0.3-0.9-0.5-0.6-0.2-1.3-0.4-0.2-0.1-0.3-0.2-0.2-0.2-0.4-0.3-0.1-0.1-0.3-0.3-0.2-0.1-0.3-0.2-0.4-0.3-0.8-0.6-0.4-0.3-0.8-0.6-0.4-0.3-0.8-0.6-0.3-0.2-0.7-0.5 0.2-0.5 0.6-0.9 0.4-0.5 0.8-0.9 0.4-0.5 0.5-1 0.2-0.5 0-1.2 0-0.2-0.2-0.6-0.2-0.3-0.6-0.7-0.4-0.4-1.1-0.6-0.7-0.2-1.9-0.1c-0.4 0-0.9 0.3-1.3 0.9-0.5 0.5-0.9 1.2-1.2 1.9-0.3 0.8-0.5 1.6-0.7 2.3-0.1 0.7-0.1 1.3 0.1 1.7 0.3 0.6 0.6 1.2 1.1 1.8 0.4 0.5 0.9 1 1.6 1.7 0.8 0.6 1.7 1.3 3 2.2 1.2 1 2.8 2.1 4.8 3.5q0.1 1.1 0.1 2 0.1 0.8 0.2 1.6 0.2 0.7 0.5 1.3 0.4 0.6 0.9 1.2c0 0 0.3 0.1 0.7 0.4 0.4 0.3 0.9 0.6 1.6 1 0.7 0.3 1.4 0.6 2.2 0.9 0.7 0.2 1.5 0.3 2.3 0.3q0 0 0.1 0 0 0 0.1 0 0-0.1 0.1-0.1 0 0 0 0zm-61.6-47.2l0.2-0.4q-0.4-0.1-0.6-0.2-0.2-0.1-0.4-0.1-0.1-0.1-0.2-0.1 0 0-0.1 0-0.5 0.1-1 0.3-0.6 0.2-1.1 0.4-0.5 0.2-1 0.4-0.5 0.2-1 0.4-0.1 0-0.2 0-0.1 0.1-0.2 0.1-0.1 0-0.2 0-0.1 0-0.3 0-0.5 0.1-1-0.1-0.6-0.2-1.1-0.7-0.5-0.5-1-1.4-0.4-0.9-0.7-2.3c-0.1-0.2-0.1-0.4-0.1-0.6 0-0.1 0.1-0.4 0.2-0.7 0.2-0.4 0.4-0.9 0.8-1.6 0.3-0.6 0.8-1.6 1.4-2.8q-0.2-0.1-0.5-0.3-0.3-0.2-0.6-0.3-0.3-0.1-0.5-0.2-0.3-0.1-0.6-0.1 0 0-0.1 0-0.1 0-0.1 0.1-0.1 0-0.2 0 0 0.1-0.1 0.1-0.3 0.3-0.4 0.7-0.2 0.4-0.2 0.8-0.1 0.4-0.1 0.8-0.1 0.4-0.2 0.8-0.1 0.4-0.4 0.7-0.3 0.3-0.5 0.6-0.3 0.3-0.6 0.6-0.3 0.3-0.5 0.7 0 0.1-0.1 0.3-0.1 0.1-0.1 0.3-0.1 0.2-0.1 0.3-0.1 0.2-0.1 0.3 0 0.1-0.1 0.4 0 0.2 0 0.6 0 0.3 0 0.6 0 0.3 0 0.6c0 0.4 0.2 0.7 0.5 0.9 0.3 0.2 0.6 0.4 0.9 0.6 0.3 0.2 0.6 0.4 0.8 0.6 0.3 0.3 0.4 0.6 0.3 1.1q-0.1 0.4-0.4 0.7-0.2 0.4-0.5 0.7-0.3 0.4-0.5 0.7-0.2 0.4-0.3 0.8-0.1 0.5 0 0.9 0 0.5 0.1 0.9 0.1 0.4 0.2 0.8 0.2 0.5 0.2 0.9-0.8 0.5-1.2 0.7-0.5 0.3-0.7 0.4-0.2 0.2-0.3 0.3-0.1 0.1-0.2 0.3-0.1 0.2-0.3 0.4-0.1 0.3-0.3 0.4-0.1 0.2-0.3 0.3-0.2 0.1-0.5 0.1-0.2 0-0.3 0-0.1 0-0.3 0-0.1-0.1-0.3-0.1-0.1 0-0.3-0.1-0.2 0.5-0.3 0.8-0.1 0.3-0.3 0.5-0.1 0.2-0.2 0.3-0.1 0.1-0.2 0.1-0.1 0-0.2 0-0.1 0-0.2-0.1-0.1 0-0.2 0-0.1 0-0.2-0.1-0.1 0-0.2 0-0.1 0-0.1-0.1-0.1 0-0.2 0 0 0-0.1 0-0.1 0-0.2 0.1-0.1 0-0.1 0.1-0.1 0.1-0.2 0.2-0.1 0.1-0.2 0.3 0.2 0.1 0.5 0.3 0.2 0.1 0.4 0.2 0.2 0.2 0.4 0.3 0.2 0.2 0.4 0.3 0.3-0.1 0.6-0.2 0.3-0.2 0.6-0.3 0.3-0.1 0.6-0.2 0.3-0.1 0.7-0.1 0.2 0 0.4 0 0.2 0.1 0.4 0.2 0.2 0.1 0.4 0.2 0.2 0.1 0.4 0.1 0.1 0.1 0.1 0.1 0.1 0 0.2 0 0.1 0 0.2 0 0.1 0 0.1 0 0.6-0.1 1.1-0.4 0.5-0.2 0.9-0.6 0.4-0.3 0.9-0.7 0.4-0.3 1-0.4 0 0 0.1 0 0 0 0.1 0 0 0 0 0 0.1 0 0.1 0 0.2 0 0.4 0 0.2 0 0.3 0.1 0.2 0.1 0.4 0.2 0.2 0.1 0.4 0.2 0.3-0.2 0.6-0.4 0.2-0.2 0.5-0.4 0.3-0.2 0.6-0.4 0.2-0.3 0.5-0.5c-0.3-1-0.5-1.8-0.6-2.4-0.1-0.6-0.2-1-0.2-1.3 0-0.4 0.1-0.6 0.2-0.9 0.2-0.3 0.4-0.5 0.6-0.8q0.3 0.1 0.6 0.3 0.3 0.1 0.6 0.3 0.3 0.1 0.6 0.3 0.3 0.1 0.6 0.3 0.2-0.5 0.2-0.9 0.1-0.5-0.1-0.8-0.1-0.3-0.3-0.6-0.3-0.3-0.5-0.5-0.5-0.3-0.7-0.6-0.2-0.3-0.3-0.5 0-0.2 0-0.3 0-0.1 0-0.1c0.3-0.5 0.7-0.8 1.2-1 0.5-0.2 1-0.2 1.5-0.3 0.6-0.1 1.1-0.1 1.6-0.3 0.5-0.1 0.9-0.4 1.2-0.9zm35.6 40.2q0.4-0.1 0.7-0.2 0.2-0.2 0.4-0.4 0.2-0.3 0.3-0.5 0.1-0.3 0.1-0.7-0.1-0.4-0.4-0.9-0.4-0.5-0.8-1-0.4-0.4-0.8-0.7-0.4-0.3-0.5-0.4-2.3-1.1-3.9-1.9-1.6-0.8-2.7-1.3-1.1-0.5-1.9-0.7-0.8-0.2-1.5-0.1-0.1 0-0.2 0-0.1 0-0.2 0-0.1 0.1-0.2 0.1-0.1 0-0.2 0-0.4 0.1-0.7 0.3-0.3 0.1-0.5 0.3-0.2 0.1-0.4 0.3-0.2 0.2-0.3 0.3-0.2 0.1-0.2 0.2-0.1 0.1-0.2 0.1 0 0.1-0.1 0.1-0.1 0-0.1 0 0 0-0.1 0 0 0 0 0 0 0-0.1 0 0 0 0 0 0 0-0.3-0.2-0.3-0.2-0.7-0.4-0.5-0.3-1-0.7-0.6-0.3-1.2-0.7 0.2-0.1 0.3-0.3 0.1-0.1 0.2-0.2 0.1-0.2 0.2-0.3 0.1-0.2 0.2-0.3-0.5-0.2-1.1-0.3-0.5-0.1-1.1-0.3-0.5-0.1-1.1-0.2-0.5-0.2-1.1-0.3c-0.2 0.7-0.5 1.6-0.7 2.6-0.3 1-0.5 2.2-0.7 3.3-0.2 1.1-0.3 2.1-0.4 3 0 0.9 0 1.7 0.1 2.2 0.2 0.7 0.6 1.2 1.1 1.5 0.4 0.4 1 0.7 1.6 0.8 0.6 0.1 1.1 0.2 1.6 0.2 0.5 0 0.8 0 1 0q0 0 0 0 0 0 0 0 0 0 0 0 0 0 0 0c0.6-0.1 1.1-0.3 1.6-0.6 0.4-0.3 0.8-0.6 1.2-1 0.4-0.4 0.8-0.7 1.3-1 0.4-0.3 0.9-0.5 1.5-0.6q0 0 0.1 0 0 0 0.1 0 0 0 0.1 0 0 0 0.1 0 0.5 0 0.9 0 0.5 0.1 0.8 0.2 0.4 0.1 0.7 0.2 0.4 0.1 0.6 0.2 0.7 0.3 1.4 0.4 0.8 0.2 1.5 0.3 0.8 0 1.5 0.1 0.7 0 1.4-0.1 0.4 0 0.8-0.1 0.4 0 0.7-0.1 0.4 0 0.7-0.1 0.3 0 0.6-0.1zm57.1-44.2q0-0.1 0.1-0.1 0.1-0.1 0.2-0.1 0.1 0 0.2-0.1 0-0.1 0-0.2l-0.4-1.2c-0.3-0.5-0.5-0.9-0.6-1.3-0.2-0.3-0.3-0.5-0.5-0.7-0.1-0.3-0.3-0.4-0.5-0.6-0.2-0.2-0.5-0.5-0.9-0.8q-0.7-0.6-1.3-1.1-0.6-0.5-1.2-0.8-0.5-0.4-1.1-0.7-0.5-0.3-1-0.6 1.5 1.3 2.7 2.4 1.2 1.1 2 2.1 0.9 1 1.4 1.9 0.6 1 0.9 1.9zm-46.4 162.1c-0.2 0.2-0.3 0.4-0.4 0.6-0.1 0.2-0.1 0.4-0.2 0.9 0 0.4-0.1 0.9-0.2 1.8 0 0.8-0.1 1.8-0.2 3.3q0.4 0 0.8 0 0.4 0 0.8-0.1 0.4 0 0.8 0 0.4 0 0.8 0c0.6-1.1 1.1-1.9 1.4-2.5 0.4-0.7 0.6-1.1 0.8-1.4 0.1-0.4 0.2-0.6 0.3-0.8 0-0.2 0-0.4 0-0.7q0-0.4 0-0.6-0.1-0.3-0.1-0.5-0.1-0.2-0.2-0.4-0.1-0.1-0.1-0.2-0.1-0.1-0.3-0.2-0.2-0.1-0.5-0.2-0.3 0-0.6-0.1-0.4 0-0.7 0-0.3 0-0.6 0.1-0.3 0.1-0.6 0.2-0.3 0.1-0.5 0.3-0.3 0.2-0.5 0.5zm16.6-132.2l0.1-0.1q-0.3-0.3-0.6-0.6-0.3-0.3-0.6-0.6-0.3-0.3-0.6-0.6-0.3-0.3-0.6-0.6-0.1-0.1-0.1-0.1-0.1-0.1-0.2-0.2 0 0-0.1-0.1-0.1 0-0.1-0.1v-0.3q0-0.2 0-0.4 0-0.2 0-0.4 0-0.2 0.1-0.4 0-0.2 0-0.5-0.1 0-0.2 0-0.1 0-0.3-0.1-0.1 0-0.2 0-0.1 0-0.3 0 0 0-0.1 0-0.1 0-0.1 0-0.1 0.1-0.2 0.1 0 0.1-0.1 0.1-0.1 0.1-0.1 0.3-0.1 0.1-0.1 0.2 0 0.2 0 0.4 0 0.2-0.1 0.4 0 0.2 0 0.3 0 0.2 0 0.3 0 0.1 0 0.2 0 0.1 0 0.2 0.1 0.1 0.2 0.2 0.2 0.1 0.3 0.2 0.1 0.1 0.3 0.4 0.3 0.3 0.6 0.7 0.4 0.5 0.8 0.8 0.3 0.4 0.7 0.6 0.3 0.2 0.6 0.4 0.2 0.1 0.4 0.1 0-0.1 0-0.1 0.1 0 0.1-0.1 0.1 0 0.2-0.2 0.1-0.1 0.3-0.4zm-40.2 1.6q-0.4 0.3-0.7 0.6-0.2 0.3-0.4 0.5-0.2 0.3-0.3 0.6-0.1 0.2-0.2 0.3 0.3 0.4 0.7 0.6 0.3 0.2 0.6 0.3 0.4 0.2 0.7 0.2 0.3 0 0.7 0 0 0 0.1 0 0.1 0 0.1 0 0.1 0 0.2 0 0.1-0.1 0.1-0.1 0.2 0 0.3 0 0.2 0 0.3 0 0.2-0.1 0.3-0.1 0.2 0 0.3 0l0.1-0.1q0.2-0.2 0.3-0.4 0.1-0.2 0.1-0.4-0.1-0.2-0.1-0.3 0-0.1-0.1-0.2-0.1-0.6-0.2-1 0-0.5 0.1-0.9 0.2-0.4 0.3-0.7 0.1-0.3 0.2-0.5l0.1-0.2q-0.4 0.2-0.9 0.4-0.5 0.2-0.9 0.4-0.5 0.2-0.9 0.5-0.5 0.2-0.9 0.5zm-28-33.3q-0.1 0-0.1 0-0.1 0-0.2 0-0.1 0-0.2 0.1-0.1 0-0.2 0 0.2 0.8 0.4 1.5 0.2 0.8 0.4 1.3 0.2 0.5 0.5 0.8 0.2 0.3 0.4 0.3 0.2 0 0.4-0.1 0.1-0.1 0.2-0.2 0.1-0.1 0.1-0.2 0.1 0 0.1-0.1 0-0.2-0.1-0.4 0-0.2-0.1-0.5-0.1-0.2-0.1-0.4-0.1-0.1-0.1-0.2 0 0 0-0.1-0.1 0-0.1-0.1 0 0-0.1-0.1 0-0.1 0-0.1 0-0.1 0-0.2 0-0.1 0-0.1 0-0.1 0-0.2 0 0 0-0.1 0-0.1 0-0.3-0.1-0.1-0.1-0.2-0.1-0.1-0.2-0.1-0.1-0.1-0.3-0.2-0.1 0-0.1 0-0.1-0.1-0.2-0.1 0 0-0.1 0-0.1 0-0.2 0z"/>
							</g>
							<g id="&lt;Group&gt;">
								<path id="&lt;Compound Path&gt;" fill-rule="evenodd" class="s0" d="m160.2 30.2q-0.1 0.2-0.2 0.4-0.1 0.2-0.3 0.5-0.1 0.2-0.2 0.5-0.2 0.2-0.3 0.4 0.4 0.8 0.6 1.6 0.1 0.7-0.1 1.3-0.3 0.6-1 1.2-0.8 0.5-2.1 0.9c0.2 0.6 0.5 1.2 0.6 1.8 0.1 0.6 0.2 1.1-0.1 1.7-0.2 0.5-0.6 1-1.4 1.5-0.7 0.4-1.8 0.9-3.4 1.2q0-0.2-0.1-0.4 0-0.2 0-0.4 0-0.3 0-0.5-0.1-0.2-0.1-0.4c-0.4 0.3-0.6 0.6-0.9 0.8-0.2 0.3-0.4 0.5-0.5 0.8-0.2 0.3-0.4 0.6-0.6 1.1-0.2 0.5-0.5 1.2-0.8 2q-0.3 0.1-0.6 0.2-0.3 0.1-0.7 0.2-0.3 0.1-0.7 0.1-0.3 0.1-0.7 0.1-0.1 0-0.2 0-0.2 0-0.3 0-0.2 0-0.3 0-0.1 0-0.2 0-0.1 0.2-0.2 0.4 0 0.2-0.1 0.4-0.1 0.3-0.2 0.5 0 0.2-0.1 0.4-0.2-0.1-0.4-0.1-0.2-0.1-0.5-0.1-0.2-0.1-0.4-0.1-0.2-0.1-0.4-0.1-0.1-0.2-0.3-0.4-0.1-0.2-0.2-0.4-0.1-0.2-0.2-0.4-0.1-0.2-0.2-0.3 0.3-0.7 0.5-1.2 0.2-0.5 0.2-0.9-0.1-0.5-0.3-1-0.3-0.6-0.9-1.3 0.2-0.1 0.4-0.2 0.2-0.1 0.4-0.2 0.2-0.1 0.4-0.2 0.2-0.1 0.4-0.2 0.2 0 0.4 0.1 0.2 0.1 0.4 0.1 0.2 0.1 0.4 0.1 0.2 0.1 0.4 0.1c1.1-0.6 1.9-1 2.6-1.4 0.6-0.5 1.2-0.9 1.6-1.4 0.5-0.4 1-1 1.5-1.8 0.6-0.8 1.3-1.9 2.1-3.2-1.3 0.1-2.5 0.5-3.6 1-1.1 0.5-2.2 1.1-3.3 1.7-1.1 0.6-2.2 1.2-3.3 1.7-1.1 0.5-2.3 0.9-3.5 1.2-0.3 0.7-0.5 1.2-0.6 1.6-0.2 0.4-0.3 0.8-0.5 1-0.1 0.3-0.3 0.5-0.6 0.8-0.2 0.2-0.5 0.5-0.9 0.9q-0.4-0.2-0.9-0.2-0.5-0.1-1-0.2-0.5-0.1-1-0.1-0.5-0.1-0.9-0.1 0.6-0.4 1.1-0.8 0.6-0.5 1.2-0.9 0.6-0.4 1.2-0.8 0.6-0.4 1.2-0.9c-6 3.2-10.5 5.6-13.9 7.4-3.3 1.8-5.6 3-7.1 3.8-1.5 0.8-2.3 1.2-2.7 1.4-0.4 0.2-0.4 0.3-0.4 0.3q0.1 0.2 0.3 0.3 0.1 0.2 0.3 0.3 0.2 0.2 0.3 0.3 0.2 0.2 0.3 0.3-0.1 0.4-0.2 0.8-0.1 0.4-0.2 0.9-0.1 0.4-0.2 0.9 0 0.4-0.1 0.8 0.2 0.1 0.3 0.3 0.2 0.2 0.4 0.3 0.2 0.2 0.3 0.4 0.2 0.1 0.3 0.3 0.1-0.1 0.1 0-0.1 0-0.1 0.1 0 0.1-0.1 0.3-0.1 0.2-0.2 0.5c-1.3 1.2-2.4 2.1-3.1 2.9-0.8 0.8-1.2 1.3-1.6 1.8-0.3 0.5-0.4 0.9-0.5 1.3 0 0.4 0.1 0.8 0.1 1.3 2.5-1.4 4.9-2.9 7.1-4.5 2.3-1.7 4.4-3.5 6.5-5.3 2.1-1.8 4.1-3.7 6.2-5.5 2.1-1.8 4.3-3.5 6.5-5.1q0.4 0 0.8 0.2 0.5 0.1 0.9 0.3 0.4 0.2 0.8 0.4 0.4 0.3 0.6 0.5c-0.3 0.8-0.5 1.4-0.7 1.9-0.2 0.5-0.4 0.9-0.6 1.3-0.2 0.3-0.5 0.7-0.8 1.1-0.3 0.4-0.7 0.9-1.2 1.5q0.1 0.2 0.1 0.4 0.1 0.2 0.1 0.4 0.1 0.2 0.2 0.4 0 0.2 0.1 0.4 0.7-0.3 1.3-0.6 0.7-0.3 1.4-0.7 0.6-0.3 1.3-0.6 0.7-0.3 1.5-0.5c-2.8 5.3-4.8 9.2-6.3 12.2-1.5 3-2.6 4.9-3.2 6.3-0.7 1.3-1.1 2-1.3 2.3-0.1 0.3-0.1 0.3-0.2 0.3q0 0.4 0.1 0.9 0.1 0.4 0.2 0.8 0.2 0.4 0.4 0.8 0.2 0.4 0.5 0.7c-0.6 1.2-1 2-1.3 2.7-0.3 0.7-0.6 1.1-0.8 1.5-0.2 0.3-0.5 0.5-0.8 0.7-0.2 0.1-0.6 0.3-1 0.4q0-0.1 0-0.3 0-0.2 0-0.5-0.1-0.2-0.1-0.4 0-0.2 0-0.3-0.7-0.2-1.4-0.4-0.6-0.1-1.3-0.4-0.6-0.2-1.2-0.4-0.7-0.2-1.4-0.4c1.9-1.5 3.2-2.6 4.3-3.5 1-0.8 1.8-1.4 2.3-1.9 0.6-0.5 0.9-0.9 1.2-1.3 0.3-0.3 0.6-0.7 0.9-1.2-1.5 0.5-3 0.8-4.6 1-1.5 0.2-3.1 0.3-4.7 0.5-1.5 0.2-3.1 0.4-4.6 0.9-1.4 0.4-2.9 1.1-4.2 2.1q1-0.4 1.7-0.6 0.6-0.2 1.1-0.3 0.4-0.1 0.8-0.1 0.4-0.1 0.8-0.1 0.3 0.1 0.5 0.3 0.2 0.2 0.3 0.4 0 0.2 0.1 0.4 0 0.2 0 0.4c-1 0.8-1.7 1.4-2.2 1.9-0.6 0.5-0.9 0.9-1.1 1.3-0.2 0.4-0.3 0.8-0.3 1.2 0 0.5 0.1 1 0.3 1.7q0.2 0 0.4 0.1 0.2 0 0.5 0.1 0.2 0 0.5 0.1 0.2 0 0.4 0 0.3-0.2 0.7-0.4 0.4-0.3 0.8-0.6 0.4-0.2 0.7-0.5 0.4-0.2 0.8-0.5c-0.6 1.2-1.4 2.1-2.2 2.9-0.9 0.7-1.8 1.3-2.8 1.7-0.9 0.4-1.9 0.7-2.8 0.9-0.9 0.2-1.8 0.3-2.5 0.3q-0.4 0.1-0.8 0.1-0.3 0-0.5 0-0.3 0-0.4 0-0.2 0-0.2 0 0.3-0.3 0.7-0.7 0.3-0.3 0.6-0.7 0.4-0.4 0.7-0.7 0.3-0.4 0.6-0.7c-2.4 0.8-4.6 1.9-6.7 3.1-2.1 1.3-4.1 2.7-6.1 4.1-2 1.4-4 2.8-6.1 4.1-2.1 1.3-4.3 2.4-6.6 3.2-1.3 1.5-2.7 2.7-4.2 3.9-1.5 1.2-3 2.3-4.6 3.4-1.5 1.1-3.1 2.2-4.5 3.4-1.5 1.2-2.8 2.5-4 4-1 1.3-1.8 2.6-2.5 4-0.6 1.4-1.2 2.9-1.7 4.3-0.5 1.5-1 2.9-1.6 4.4-0.6 1.4-1.3 2.8-2.2 4.1 0.1-4.3 0.1-7.5 0.1-9.9 0-2.4 0-4.1-0.1-5.2-0.1-1.1-0.3-1.7-0.5-2.1-0.2-0.4-0.5-0.5-1-0.8q-0.2 0.4-0.4 0.7-0.3 0.4-0.6 0.8-0.3 0.3-0.6 0.6-0.4 0.3-0.7 0.6-0.2-0.3-0.5-0.7-0.3-0.3-0.5-0.7-0.3-0.4-0.6-0.7-0.2-0.4-0.4-0.8c-2.3 0.4-4.5 2.1-6.5 4.5-2 2.5-3.7 5.7-5.1 9-1.4 3.2-2.4 6.6-2.9 9.5-0.5 2.9-0.6 5.2 0.1 6.3q0.2 0.1 0.4 0.2 0.3 0 0.5 0.1 0.3 0 0.5 0.1 0.2 0.1 0.5 0.1c0.5-0.5 0.9-1.1 1.3-1.7 0.4-0.7 0.7-1.4 1.1-2 0.4-0.6 0.8-1.2 1.4-1.6 0.6-0.5 1.4-0.8 2.4-0.8q0.2 0.1 0.4 0.3 0.1 0.2 0.2 0.4 0.1 0.2 0.2 0.4 0.1 0.2 0.2 0.3c-1.6 2.8-2.7 4.9-3.6 6.6-0.9 1.6-1.4 2.7-1.8 3.6-0.3 0.9-0.5 1.5-0.5 2.1 0 0.7 0.1 1.2 0.3 2 2.6 1.3 3.5 3 3.6 4.9 0.1 1.8-0.7 3.9-1.5 6-0.8 2.1-1.6 4.3-1.8 6.4-0.1 2 0.5 4 2.7 5.7q0.2-0.1 0.4-0.2 0.2-0.1 0.5-0.2 0.2 0 0.4-0.1 0.2-0.1 0.4-0.2 0.5 0.4 0.9 0.9 0.4 0.4 0.8 0.9 0.3 0.5 0.6 1 0.4 0.5 0.8 1c0.9-1.3 1.6-2.2 2.2-3 0.6-0.8 1.1-1.3 1.7-1.8 0.5-0.5 1.1-1 2-1.5 0.8-0.5 1.7-1.1 3.1-1.8q0 0 0 0 0 0 0.1 0.2 0 0.1 0 0.4 0 0.2 0 0.7-0.1 0.2-0.3 0.5-0.1 0.2-0.2 0.4-0.1 0.2-0.2 0.4-0.1 0.3-0.2 0.4 0.2 0.1 0.4 0.1 0.2 0 0.5 0 0.2 0 0.4 0 0.3 0.1 0.5 0.1 0.1-0.2 0.2-0.4 0.1-0.1 0.2-0.3 0.2-0.2 0.3-0.4 0.1-0.2 0.2-0.3c0.5 0.6 0.9 1.1 1.2 1.4 0.3 0.4 0.4 0.7 0.6 1 0.1 0.3 0.2 0.5 0.3 0.8 0 0.3 0.1 0.7 0.1 1.2 0.7 0.2 1.1 0.4 1.5 0.5 0.4 0.2 0.7 0.3 1.1 0.5 0.3 0.2 0.6 0.4 0.9 0.6 0.4 0.3 0.9 0.6 1.5 1.1q0.4-0.2 0.8-0.3 0.5-0.1 1-0.2 0.5-0.1 1-0.1 0.4-0.1 0.9-0.2c0 0.1 0.4 0.9 1 2.1 0.6 1.2 1.4 2.9 2.2 4.6 0.9 1.7 1.7 3.4 2.5 4.9 0.8 1.5 1.4 2.6 1.7 3.1 0.6 1 1.6 1.7 2.8 2.3 1.1 0.6 2.4 1 3.6 1.5 1.2 0.5 2.3 1 3.2 1.9 0.9 0.8 1.5 1.9 1.6 3.5 0.2 2 0.4 3.7 0.7 5.2 0.3 1.4 0.7 2.6 1.2 3.6 0.4 1.1 1 2 1.5 2.8 0.6 0.9 1.3 1.7 2 2.6 3.3-0.1 6 0.7 8.3 2 2.3 1.4 4.3 3.2 6.2 5.1 1.9 1.9 3.7 3.9 5.8 5.6 2.1 1.6 4.4 3 7.2 3.5q0.5 1 0.9 2 0.5 1 0.8 2 0.3 1 0.6 2.1 0.2 1 0.2 2.2c0 1.5-0.3 2.9-0.9 4.3-0.6 1.4-1.4 2.7-2.1 4.1-0.8 1.3-1.5 2.7-1.9 4.1-0.4 1.4-0.6 2.9-0.3 4.5 0.3 1.1 0.6 2.5 0.9 4.1 0.2 1.5 0.5 3.2 0.7 4.9 0.2 1.7 0.3 3.5 0.3 5.1 0 1.7-0.1 3.4-0.5 4.8-0.2 1.3-1 2-1.9 2.4-0.9 0.4-2.1 0.6-3.2 0.8-1.2 0.2-2.3 0.4-3.1 0.9-0.9 0.5-1.5 1.2-1.6 2.6-0.1 1 0.1 1.9 0.5 2.9 0.4 0.9 0.9 1.9 1.4 2.8 0.4 1 0.7 1.9 0.7 2.9 0 1-0.4 2-1.2 3.1q0.1 0.6 0.1 1.2 0 0.6-0.1 1.2-0.1 0.5-0.2 1.1-0.1 0.6-0.1 1.2 0.1 0.1 0.3 0.3 0.1 0.1 0.3 0.3 0.2 0.1 0.3 0.3 0.2 0.1 0.3 0.2 0 0.2 0 0.5-0.1 0.2-0.1 0.5 0 0.2-0.1 0.5 0 0.2 0 0.4-0.8-0.1-1.6-0.3-0.7-0.1-1.5-0.3-0.8-0.2-1.5-0.4-0.8-0.2-1.6-0.3c1.7 1 2.9 1.8 3.8 2.6 0.9 0.8 1.6 1.5 2 2.1 0.4 0.6 0.5 1.2 0.6 1.7 0.1 0.6 0.1 1.1 0.1 1.6q-0.3 0.1-0.6 0.1-0.3 0.1-0.7 0.1-0.3 0.1-0.7 0.1-0.3 0-0.7 0.1-0.1 0-0.3 0-0.2 0-0.3 0-0.2 0-0.4 0-0.1 0-0.3 0 0.3 0.3 0.5 0.7 0.2 0.5 0.4 0.9 0.2 0.5 0.3 0.9 0.1 0.5 0 0.9-0.2-0.1-0.4-0.2-0.2-0.1-0.5-0.1-0.2-0.1-0.4-0.2-0.3-0.1-0.5-0.2 0.8 0.8 1.4 1.4 0.6 0.5 1.1 0.8 0.6 0.4 1.3 0.7 0.7 0.2 1.6 0.6-0.1 0.1-0.1 0.3-0.1 0.2-0.1 0.4-0.1 0.3-0.1 0.5-0.1 0.2-0.1 0.3 2.6 2.5 5.4 4.9 2.8 2.3 5.7 4.5 2.8 2.3 5.7 4.6 2.8 2.3 5.4 4.8c-1.2-0.3-2.2-0.6-3.4-1.1-1.2-0.5-2.6-1.4-4.8-2.8-2.2-1.5-5.2-3.6-9.5-6.8-4.3-3.1-9.9-7.3-17.4-12.8q0.1 0.1 0.3 0.3 0.1 0.2 0.3 0.4 0.1 0.2 0.2 0.4 0.2 0.2 0.3 0.4c-2.5-2.3-5.1-5.2-7.6-8.1-2.4-3-4.8-6.1-6.8-8.9-2-2.9-3.8-5.4-5-7.3-1.2-1.8-1.9-2.9-1.9-3-2.5-4.9-5.2-9.8-8-14.5-2.9-4.8-5.9-9.5-8.8-14.2-3-4.7-5.8-9.5-8.5-14.3-2.7-4.9-5.2-9.8-7.3-14.9-1.7-4.1-3-7.2-4-9.7-0.9-2.5-1.5-4.5-1.9-6.1-0.4-1.7-0.5-3.1-0.4-4.6 0.1-1.5 0.3-3.1 0.7-5.2 1.2-6.3 2.1-11 2.7-14.5 0.7-3.6 1.1-6 1.2-7.7 0.2-1.7 0.1-2.7-0.1-3.3-0.2-0.7-0.6-1.1-1.2-1.5q-0.2 0.3-0.4 0.7-0.3 0.4-0.5 0.8-0.2 0.5-0.4 0.9-0.2 0.4-0.3 0.8c-0.5-1-1-1.7-1.4-2.7-0.4-0.9-0.8-2.2-1.3-4.2-0.5-2-1.2-4.8-2.1-8.8-1-4-2.2-9.3-3.8-16.4q-0.2 0-0.4 0-0.3 0.1-0.5 0.1-0.2 0-0.4 0-0.3 0-0.5 0.1c-2.2-4.6-2.8-9-2.5-13.1 0.4-4.2 1.7-8.2 3.3-12.2 1.7-4 3.7-7.9 5.4-11.9 1.7-3.9 3.2-7.9 3.8-12.1-1.1 1.8-1.9 3.5-2.7 5.3-0.8 1.9-1.5 3.7-2.2 5.5-0.6 1.8-1.3 3.7-2 5.5-0.8 1.8-1.6 3.6-2.5 5.4 0.7-3.1 2.2-7 4.1-11.4 1.8-4.4 4.2-9.2 6.7-13.9 2.5-4.6 5.2-9.2 7.8-13.2 2.6-4 5.1-7.4 7.2-9.6 3.2-3.4 6.6-6.5 10.2-9.5 3.5-3 7.2-5.9 10.8-8.9 3.6-3 7.1-6 10.4-9.3 3.2-3.3 6.2-6.8 8.8-10.6q-0.2 0-0.4 0.1-0.2 0.1-0.5 0.2-0.2 0.1-0.4 0.2-0.2 0.1-0.4 0.2-0.2-0.1-0.4-0.2-0.2-0.1-0.4-0.2-0.2-0.1-0.4-0.2-0.2-0.1-0.3-0.2-1 0.5-1.8 0.9-0.8 0.3-1.5 0.5-0.7 0.2-1.2 0.3-0.6 0.1-1.1 0.2-0.2 0-0.4 0-0.2 0-0.4 0-0.2 0-0.4 0-0.1 0-0.3 0c0 0 0.9-0.5 2.4-1.2 1.5-0.8 3.5-1.7 5.6-2.8 2.2-1 4.4-2.1 6.3-3.1 2-1 3.6-1.8 4.6-2.3q0-0.3 0.1-0.5 0-0.2 0.1-0.4 0.2-0.2 0.4-0.4 0.3-0.2 0.7-0.4 0.3-0.1 0.5-0.2 0.3-0.1 0.5-0.2 0.3 0 0.6-0.1 0.3 0 0.6 0 0.2-0.1 0.3-0.1 0.2 0 0.4 0 0.2 0.1 0.4 0.1 0.1 0 0.3 0c0.8-0.4 1.4-0.8 1.9-1.1 0.5-0.2 0.8-0.4 1.2-0.6 0.3-0.2 0.6-0.3 1-0.4 0.4-0.1 0.8-0.3 1.4-0.4q0 0 0 0 0 0 0.2 0 0.1-0.1 0.4-0.1 0.3 0 0.9 0 0.2 0 0.5-0.1 0.3 0 0.6 0 0.3-0.1 0.6-0.1 0.3-0.1 0.6-0.1 0.1 0.2 0.2 0.3 0.2 0.2 0.4 0.4 0.1 0.2 0.3 0.3 0.1 0.2 0.3 0.4c-0.1 0.3-0.2 0.6-0.3 0.8 0 0.2-0.1 0.5-0.1 0.8-0.1 0.3-0.2 0.7-0.2 1.2-0.1 0.6-0.2 1.2-0.4 2.2q0.8-0.1 1.6-0.1 0.7 0 1.4 0.1 0.7 0 1.3 0.1 0.6 0 1.2 0-0.1 0.1-0.3 0.3-0.2 0.1-0.4 0.3-0.2 0.2-0.4 0.3-0.2 0.2-0.3 0.3 0.2 0 0.4 0.1 0.2 0 0.4 0 0.3 0 0.5 0 0.2 0.1 0.4 0.1 0 0.3-0.1 0.8 0 0.4-0.1 0.8 0 0.5-0.1 0.9 0 0.4-0.1 0.8-0.2 0.1-0.4 0.2-0.2 0.1-0.4 0.2-0.3 0.2-0.5 0.3-0.2 0.1-0.4 0.2 0.2 0.1 0.5 0.1 0.2 0.1 0.4 0.1 0.2 0.1 0.5 0.1 0.2 0.1 0.4 0.1-0.1 0.2-0.1 0.4-0.1 0.2-0.2 0.4 0 0.2-0.1 0.4-0.1 0.2-0.1 0.4 0.3-0.3 0.7-0.5 0.4-0.3 0.8-0.6 0.4-0.3 0.8-0.6 0.4-0.3 0.8-0.5-0.4-0.6-0.6-1.1-0.2-0.4-0.3-0.7 0-0.3 0.1-0.5 0-0.3 0.1-0.4 0.3-0.1 0.6-0.2 0.2-0.1 0.5-0.1 0.4-0.1 0.7-0.1 0.3 0 0.6-0.1 0.2 0 0.3 0 0.2 0 0.4 0 0.2 0 0.3 0 0.2 0 0.3 0-0.1-0.1-0.3-0.2-0.2-0.1-0.3-0.2-0.2-0.2-0.4-0.3-0.2-0.1-0.3-0.2 0.4-0.2 0.8-0.5 0.4-0.2 0.8-0.5 0.5-0.3 0.9-0.6 0.4-0.2 0.7-0.5-0.4 0.1-0.9 0.2-0.4 0.1-0.9 0.1-0.5 0.1-1 0.2-0.4 0.1-0.8 0.1c0.3-0.3 0.6-0.5 0.9-0.8 0.4-0.3 0.8-0.5 1.4-0.8 0.6-0.3 1.4-0.6 2.4-0.9 1-0.4 2.3-0.7 4-1.2q0.1 0.1 0.2 0.2 0.1 0.1 0.2 0.2 0.1 0.2 0.3 0.3 0.1 0.1 0.2 0.2-0.2 0.3-0.3 0.7-0.1 0.4-0.2 0.9-0.1 0.4 0 0.8 0 0.4 0 0.8-0.1 0.1-0.3 0.3-0.2 0.2-0.4 0.3-0.2 0.2-0.4 0.3-0.3 0.2-0.4 0.3 0.4-0.2 1-0.4 0.6-0.2 1.2-0.4 0.6-0.1 1.2-0.2 0.5-0.1 1.1-0.2c-1.2 0.6-2.1 1-2.8 1.4-0.7 0.4-1.2 0.7-1.6 1-0.4 0.2-0.6 0.5-0.9 0.9-0.2 0.3-0.4 0.7-0.6 1.2q-1 0.3-1.8 0.6-0.7 0.2-1.2 0.3-0.4 0.2-0.8 0.3-0.3 0-0.6 0.1-0.1 0-0.2 0-0.2 0-0.3 0-0.1 0-0.3-0.1-0.1 0-0.3 0 0 0.2 0 0.4 0 0.3 0.1 0.5 0 0.2 0 0.5 0 0.2 0 0.4c0.6-0.1 1.1-0.1 1.7-0.2 0.6-0.2 1.2-0.4 2-0.7 0.9-0.3 1.9-0.8 3.2-1.4 1.4-0.6 3.1-1.4 5.2-2.4q0.9-0.3 1.6-0.7 0.8-0.4 1.6-0.7 0.8-0.4 1.6-0.7 0.8-0.3 1.6-0.5 0.1 0 0.1 0 0 0 0.1 0.1 0 0 0.2 0.1 0.1 0.1 0.4 0.3c-1.7 0.8-3 1.4-4 1.9-1 0.4-1.7 0.8-2.4 1.2-0.6 0.3-1.1 0.7-1.7 1.1-0.6 0.5-1.3 1-2.1 1.7q-0.1 0.3-0.2 0.7-0.1 0.4-0.3 0.8-0.1 0.4-0.4 0.8-0.2 0.3-0.5 0.6c1.4-0.5 2.6-1.2 3.8-2 1.2-0.8 2.4-1.6 3.6-2.4 1.2-0.8 2.4-1.6 3.7-2.1 1.3-0.6 2.7-1 4.2-1.1q0.2-0.1 0.4-0.1 0.2 0 0.3 0 0.2 0 0.4 0 0.2 0 0.4 0 0 0.2 0.1 0.4 0.1 0.2 0.2 0.3 0.2 0.2 0.3 0.4 0.1 0.2 0.1 0.4zm-77.1 54.6q0 0 0.1-0.1 0.1-0.1 0.2-0.2 0.2-0.1 0.4-0.3 0.2-0.2 0.4-0.5 0.3-0.3 0.7-0.8 0.4-0.5 1-1 0.5-0.6 1.2-1.2 0.7-0.6 1.6-1.2 0.4-0.3 0.8-0.6 0.5-0.3 0.9-0.5 0.5-0.3 0.9-0.6 0.4-0.3 0.8-0.6l0.2-0.2q-0.1 0-0.2 0-0.1 0-0.2 0-0.1-0.1-0.3-0.1-0.2 0-0.3 0-0.3 0.1-0.6 0.1-0.4 0.1-0.7 0.3-0.4 0.1-0.8 0.3-0.4 0.3-0.9 0.6c0 0-0.2 0.2-0.6 0.5-0.3 0.3-0.8 0.7-1.3 1.2-0.5 0.4-1.1 0.9-1.7 1.5-0.5 0.5-1.1 1-1.5 1.5q-0.5 0.5-0.8 0.9-0.3 0.4-0.5 0.8-0.2 0.3-0.4 0.6-0.1 0.3-0.2 0.5 0.1 0 0.3-0.1 0.2-0.1 0.4-0.1 0.3-0.1 0.5-0.3 0.3-0.2 0.6-0.4zm18.5-27.9l0.3-0.3q-0.2 0.1-0.5 0.2-0.3 0.1-0.5 0.1-0.3 0.1-0.6 0.2-0.2 0.1-0.5 0.2-0.1 0.1-0.3 0.2-0.2 0.1-0.3 0.1-0.1 0.1-0.2 0.2-0.2 0.1-0.2 0.2c-0.2 0.1-0.3 0.3-0.5 0.4-0.2 0.2-0.4 0.5-0.8 0.9-0.3 0.4-0.8 0.9-1.4 1.7-0.6 0.8-1.4 1.8-2.4 3q0.1 0 0.2 0 0.2-0.1 0.4-0.2 0.2 0 0.4-0.2 0.3-0.2 0.6-0.5 0.8-0.7 1.6-1.5 0.8-0.8 1.5-1.6 0.8-0.7 1.6-1.5 0.8-0.8 1.6-1.6zm-12.8 27.3q0.2-0.1 0.4-0.2 0.2-0.1 0.4-0.2 0.2-0.1 0.5-0.3 0.2-0.2 0.6-0.6 0.4-0.3 0.8-0.7 0.4-0.3 0.8-0.7 0.4-0.4 0.8-0.8 0.4-0.4 0.8-0.7 0 0.2 0 0.4-0.1 0.2-0.1 0.4 0 0.2 0 0.4-0.1 0.2-0.1 0.4 0.2-0.1 0.4-0.2 0.1-0.1 0.3-0.2 0.1-0.1 0.3-0.2 0.1-0.2 0.3-0.3 0.2-0.3 0.3-0.6 0.2-0.3 0.3-0.5 0.1-0.3 0.1-0.6 0.1-0.2 0-0.3 0-0.1 0-0.1-0.1 0-0.1-0.1 0 0-0.1 0 0 0-0.1 0 0 0-0.1 0 0 0-0.1 0.1-0.1 0-0.1 0-0.1 0-0.2 0.1 0 0-0.1 0 0 0-0.1 0.1-0.1 0-0.1 0-0.1 0-0.1 0-0.1 0-0.1 0-0.1 0-0.1 0-0.1 0-0.1-0.1 0 0-0.1-0.1 0.2-0.2 0.3-0.4 0.1-0.3 0.2-0.5 0.2-0.2 0.3-0.5 0.1-0.2 0.3-0.4-0.4 0.1-0.7 0.2-0.4 0.2-0.7 0.3-0.4 0.1-0.7 0.2-0.3 0.2-0.7 0.3 0 0.2-0.1 0.3 0 0.2 0 0.4-0.1 0.1-0.1 0.3 0 0.2-0.1 0.4v0.1l-0.3 0.3q-0.3 0.3-0.5 0.6-0.3 0.2-0.6 0.5-0.2 0.2-0.5 0.5-0.2 0.2-0.5 0.5 0.2 0.1 0.3 0.2 0.1 0.1 0 0.3-0.1 0.2-0.2 0.4-0.2 0.3-0.4 0.6-0.2 0.2-0.3 0.4-0.1 0.1-0.2 0.3 0 0.1 0 0.2-0.1 0.1-0.1 0.1zm8-13.1q0.1-0.2 0-0.3 0-0.1-0.1-0.2-0.1-0.1-0.2-0.2-0.1 0-0.2 0-0.1 0-0.1 0 0 0 0 0 0 0 0 0 0 0 0 0-1.6 0.3-2.7 0.7-1.2 0.3-2.1 0.7-0.8 0.3-1.4 0.6-0.6 0.2-0.9 0.4 0 0.2 0 0.4 0 0.2 0.1 0.3 0 0.1 0.1 0.2 0.1 0 0.2 0.1 0.1 0 0.1 0 0.1 0 0.1 0 0.1 0 0.1 0 0.1 0 0.2 0 0 0 0.1 0 0 0 0.1 0 0 0 0.1 0 0.1 0 0.2 0 0.2-0.1 0.5-0.2 0.2-0.1 0.5-0.2 0.2 0 0.4-0.1 0.3-0.1 0.5-0.2-0.3 0.7-0.4 1.1-0.1 0.4-0.1 0.6 0.1 0.2 0.3 0.3 0.2 0.1 0.6 0.1 0 0 0.1-0.1 0 0 0 0 0 0 0.1 0 0 0 0 0 0.1 0 0.1 0 0 0 0.1 0 0 0 0 0 0.1 0 0.1 0 0.2 0 0.4 0 0.1 0 0.2 0.1 0.1 0 0.2 0.2 0 0.1 0 0.3 0.1-0.1 0.2-0.2 0.1-0.1 0.2-0.1 0.1-0.1 0.2-0.2 0.1-0.1 0.1-0.2 0.6-0.5 0.9-1.2 0.4-0.7 0.7-1.3 0.2-0.6 0.3-1 0.1-0.4 0.1-0.4zm0.2 12.9l0.3-0.4q-0.3-0.1-0.6-0.1-0.3-0.1-0.6-0.2-0.3 0-0.5 0-0.3 0-0.6 0-0.4 0-0.7 0.1-0.4 0.1-0.8 0.3-0.4 0.2-0.9 0.5-0.4 0.2-0.8 0.6 0.3 0 0.6 0.1 0.3 0.1 0.6 0.3 0.3 0.1 0.6 0.2 0.3 0.1 0.7 0.1 0 0 0 0 0 0 0.1 0 0 0 0 0 0-0.1 0-0.1 0.2 0 0.4 0 0.2-0.1 0.5-0.2 0.3-0.2 0.7-0.5 0.4-0.2 1-0.7zm25.9-50.7q-0.1-0.1-0.1-0.2 0-0.1 0-0.2 0 0 0-0.1 0-0.1 0-0.2 0.3-0.1 0.5-0.2 0.2-0.1 0.3-0.1 0.1-0.1 0.2-0.2 0.1-0.1 0.3-0.2-0.6 0.1-1 0.2-0.3 0-0.5 0.1-0.2 0-0.3 0.1-0.1 0-0.3 0.1-0.4 0.2-0.6 0.3-0.3 0.1-0.4 0.1-0.2 0.1-0.3 0.1-0.1 0.1-0.3 0.2-0.2 0-0.3 0.1-0.2 0-0.4 0-0.1 0.1-0.3 0.1-0.1 0.1-0.3 0.1-0.2 0.1-0.4 0.2-0.2 0.1-0.3 0.1-0.2 0.1-0.4 0.2-0.2 0.1-0.3 0.2 0.5-0.1 1.1-0.1 0.6-0.1 1.1-0.1 0.6-0.1 1.2-0.1 0.5-0.1 1.1-0.1 0.1 0 0.1 0 0.1 0 0.1-0.1 0.1 0 0.2-0.1 0.1-0.1 0.3-0.2zm-32.6 53.3h0.4q-0.1-0.1-0.2-0.2-0.1-0.2-0.3-0.3-0.2-0.2-0.5-0.2-0.2-0.1-0.6-0.1 0 0 0 0 0 0 0 0 0 0-0.1 0 0 0 0 0-0.1 0-0.2 0-0.1 0-0.2 0.1-0.2 0-0.3 0-0.2 0.1-0.4 0.2-0.4 0.1-0.7 0.2-0.3 0.2-0.7 0.3-0.3 0.1-0.7 0.3-0.3 0.1-0.6 0.3 0 0.1 0.1 0.2 0.1 0.1 0.1 0.1 0.1 0.1 0.2 0.1 0.1 0.1 0.2 0.1 0.1 0 0.1 0.1 0.1 0 0.2 0 0.1 0 0.2 0 0.1 0 0.2 0 0.1 0 0.1 0 0.1 0 0.2 0 0 0 0.1-0.1 0.1 0 0.2 0 0.4-0.1 0.8-0.2 0.4-0.2 0.8-0.3 0.4-0.2 0.8-0.3 0.4-0.1 0.8-0.3zm23.1-45.8q0-0.2 0.1-0.4 0.1-0.2 0.1-0.3 0.1-0.2 0.2-0.4 0.1-0.2 0.1-0.3-0.5 0.2-1 0.3-0.4 0.2-0.9 0.4-0.5 0.2-1 0.4-0.5 0.2-1 0.4 0 0.1 0 0.1 0 0.1 0 0.2 0 0 0 0.1 0.1 0 0.1 0.1 0.1 0 0.1 0 0 0 0.1 0 0 0 0.1 0.1 0.1 0 0.2 0 0-0.1 0-0.1 0.1 0 0.1 0 0 0 0.1 0 0 0 0 0 0.3 0 0.6-0.1 0.3-0.1 0.6-0.2 0.3-0.1 0.6-0.1 0.2-0.1 0.5-0.2z"/>
							</g>
						</g>
					</g>
					<path id="&lt;Path&gt;" class="s1" d="m197.2 178.3c0 1.3-1 2.4-2.3 2.4-1.3 0-2.3-1.1-2.3-2.4 0-1.2 1-2.3 2.3-2.3 1.3 0 2.3 1.1 2.3 2.3z"/>
					<path id="&lt;Path&gt;" class="s1" d="m249.2 61.5c0 1-0.7 1.8-1.7 1.8-1 0-1.8-0.8-1.8-1.8 0-0.9 0.8-1.7 1.8-1.7 1 0 1.7 0.8 1.7 1.7z"/>
					<path id="&lt;Path&gt;" class="s1" d="m79.2 95.5c0 1-0.8 1.8-1.8 1.8-1 0-1.8-0.8-1.8-1.8 0-1 0.8-1.8 1.8-1.8 1 0 1.8 0.8 1.8 1.8z"/>
				</g>
			</g>
		</g>
		<g id="&lt;Group&gt;">
			<path id="&lt;Path&gt;" class="s2" d="m603.2 387.4c-0.4 0.3-1 0.3-1.4 0l-2.5-2.6c-0.4-0.4-0.4-1 0-1.3 0.3-0.4 0.9-0.4 1.3 0l2.6 2.5c0.3 0.4 0.3 1 0 1.4z"/>
			<path id="&lt;Path&gt;" class="s2" d="m601.8 387.4c-0.3-0.4-0.3-1 0-1.4l2.6-2.5c0.3-0.4 0.9-0.4 1.3 0 0.4 0.3 0.4 0.9 0 1.3l-2.5 2.6c-0.4 0.3-1 0.3-1.4 0z"/>
		</g>
	</g>
</svg>